<?xml version="1.0" encoding="UTF-8" standalone="no"?>
<!-- Created with Inkscape (http://www.inkscape.org/) -->

<svg
   xmlns:dc="http://purl.org/dc/elements/1.1/"
   xmlns:cc="http://creativecommons.org/ns#"
   xmlns:rdf="http://www.w3.org/1999/02/22-rdf-syntax-ns#"
   xmlns:svg="http://www.w3.org/2000/svg"
   xmlns="http://www.w3.org/2000/svg"
   xmlns:xlink="http://www.w3.org/1999/xlink"
   xmlns:sodipodi="http://sodipodi.sourceforge.net/DTD/sodipodi-0.dtd"
   xmlns:inkscape="http://www.inkscape.org/namespaces/inkscape"
   width="744.09448819"
   height="1052.3622047"
   id="svg3418"
   version="1.1"
   inkscape:version="0.48.3.1 r9886"
   sodipodi:docname="New document 2">
  <defs
     id="defs3420">
    <marker
       inkscape:stockid="Arrow1Lend"
       orient="auto"
       refY="0.0"
       refX="0.0"
       id="Arrow1Lend"
       style="overflow:visible;">
      <path
         id="path4387"
         d="M 0.0,0.0 L 5.0,-5.0 L -12.5,0.0 L 5.0,5.0 L 0.0,0.0 z "
         style="fill-rule:evenodd;stroke:#000000;stroke-width:1.0pt;"
         transform="scale(0.8) rotate(180) translate(12.5,0)" />
    </marker>
    <linearGradient
       id="linearGradient4930">
      <stop
         id="stop4932"
         offset="0"
         style="stop-color:#000000;stop-opacity:1;" />
      <stop
         id="stop4934"
         offset="1"
         style="stop-color:#dcdcda;stop-opacity:1;" />
    </linearGradient>
    <linearGradient
       id="linearGradient3355">
      <stop
         id="stop3357"
         offset="0"
         style="stop-color:#000000;stop-opacity:1;" />
      <stop
         id="stop3359"
         offset="1"
         style="stop-color:#dcdcda;stop-opacity:1;" />
    </linearGradient>
    <linearGradient
       id="linearGradient5495-6"
       inkscape:collect="always">
      <stop
         id="stop5497-3"
         offset="0"
         style="stop-color:#ffffff;stop-opacity:1;" />
      <stop
         id="stop5499-8"
         offset="1"
         style="stop-color:#ffffff;stop-opacity:0;" />
    </linearGradient>
    <linearGradient
       id="linearGradient6521"
       inkscape:collect="always">
      <stop
         id="stop6523"
         offset="0"
         style="stop-color:#ef2929;stop-opacity:1;" />
      <stop
         id="stop6525"
         offset="1"
         style="stop-color:#ef2929;stop-opacity:0;" />
    </linearGradient>
    <linearGradient
       id="linearGradient7015"
       inkscape:collect="always">
      <stop
         id="stop7017"
         offset="0"
         style="stop-color:#fce94f;stop-opacity:1;" />
      <stop
         id="stop7019"
         offset="1"
         style="stop-color:#fce94f;stop-opacity:0;" />
    </linearGradient>
    <linearGradient
       inkscape:collect="always"
       xlink:href="#linearGradient4930"
       id="linearGradient3596"
       gradientUnits="userSpaceOnUse"
       x1="492.96603"
       y1="715.50116"
       x2="424.069"
       y2="462.00504" />
    <linearGradient
       inkscape:collect="always"
       xlink:href="#linearGradient4930"
       id="linearGradient3598"
       gradientUnits="userSpaceOnUse"
       x1="492.96603"
       y1="715.50116"
       x2="424.069"
       y2="462.00504" />
    <linearGradient
       inkscape:collect="always"
       xlink:href="#linearGradient5495-6"
       id="linearGradient3600"
       gradientUnits="userSpaceOnUse"
       gradientTransform="translate(-270,-714)"
       x1="416.13235"
       y1="757.6485"
       x2="423.55698"
       y2="829.77338" />
    <radialGradient
       inkscape:collect="always"
       xlink:href="#linearGradient5495-6"
       id="radialGradient3602"
       gradientUnits="userSpaceOnUse"
       gradientTransform="matrix(0.9997725,-0.02133204,0.00935459,0.4384235,-275.24518,-198.88532)"
       cx="409.01715"
       cy="1015.265"
       fx="409.01715"
       fy="1015.265"
       r="74.599762" />
    <radialGradient
       inkscape:collect="always"
       xlink:href="#linearGradient6521"
       id="radialGradient3604"
       gradientUnits="userSpaceOnUse"
       cx="146.5"
       cy="136.86218"
       fx="146.5"
       fy="136.86218"
       r="25.5" />
    <radialGradient
       inkscape:collect="always"
       xlink:href="#linearGradient6521"
       id="radialGradient3606"
       gradientUnits="userSpaceOnUse"
       cx="146.5"
       cy="136.86218"
       fx="146.5"
       fy="136.86218"
       r="25.5" />
    <radialGradient
       inkscape:collect="always"
       xlink:href="#linearGradient7015"
       id="radialGradient3608"
       gradientUnits="userSpaceOnUse"
       gradientTransform="matrix(1,0,0,0.9285714,0,26.807666)"
       cx="280.72141"
       cy="375.30743"
       fx="280.72141"
       fy="375.30743"
       r="4.9497476" />
    <marker
       inkscape:stockid="Arrow1Lend"
       orient="auto"
       refY="0"
       refX="0"
       id="Arrow1Lend-5"
       style="overflow:visible">
      <path
         inkscape:connector-curvature="0"
         id="path4387-8"
         d="M 0,0 5,-5 -12.5,0 5,5 0,0 z"
         style="fill-rule:evenodd;stroke:#000000;stroke-width:1pt"
         transform="matrix(-0.8,0,0,-0.8,-10,0)" />
    </marker>
    <marker
       inkscape:stockid="Arrow1Lend"
       orient="auto"
       refY="0"
       refX="0"
       id="Arrow1Lend-59"
       style="overflow:visible">
      <path
         inkscape:connector-curvature="0"
         id="path4387-5"
         d="M 0,0 5,-5 -12.5,0 5,5 0,0 z"
         style="fill-rule:evenodd;stroke:#000000;stroke-width:1pt"
         transform="matrix(-0.8,0,0,-0.8,-10,0)" />
    </marker>
    <marker
       inkscape:stockid="Arrow1Lend"
       orient="auto"
       refY="0"
       refX="0"
       id="Arrow1Lend-7"
       style="overflow:visible">
      <path
         inkscape:connector-curvature="0"
         id="path4387-55"
         d="M 0,0 5,-5 -12.5,0 5,5 0,0 z"
         style="fill-rule:evenodd;stroke:#000000;stroke-width:1pt"
         transform="matrix(-0.8,0,0,-0.8,-10,0)" />
    </marker>
    <marker
       inkscape:stockid="Arrow1Lend"
       orient="auto"
       refY="0"
       refX="0"
       id="Arrow1Lend-0"
       style="overflow:visible">
      <path
         inkscape:connector-curvature="0"
         id="path4387-7"
         d="M 0,0 5,-5 -12.5,0 5,5 0,0 z"
         style="fill-rule:evenodd;stroke:#000000;stroke-width:1pt"
         transform="matrix(-0.8,0,0,-0.8,-10,0)" />
    </marker>
    <marker
       inkscape:stockid="Arrow1Lend"
       orient="auto"
       refY="0"
       refX="0"
       id="Arrow1Lend-1"
       style="overflow:visible">
      <path
         inkscape:connector-curvature="0"
         id="path4387-6"
         d="M 0,0 5,-5 -12.5,0 5,5 0,0 z"
         style="fill-rule:evenodd;stroke:#000000;stroke-width:1pt"
         transform="matrix(-0.8,0,0,-0.8,-10,0)" />
    </marker>
    <marker
       inkscape:stockid="Arrow1Lend"
       orient="auto"
       refY="0"
       refX="0"
       id="Arrow1Lend-18"
       style="overflow:visible">
      <path
         inkscape:connector-curvature="0"
         id="path4387-0"
         d="M 0,0 5,-5 -12.5,0 5,5 0,0 z"
         style="fill-rule:evenodd;stroke:#000000;stroke-width:1pt"
         transform="matrix(-0.8,0,0,-0.8,-10,0)" />
    </marker>
    <linearGradient
       inkscape:collect="always"
       xlink:href="#linearGradient4930-0"
       id="linearGradient3596-8"
       gradientUnits="userSpaceOnUse"
       x1="492.96603"
       y1="715.50116"
       x2="424.069"
       y2="462.00504" />
    <linearGradient
       id="linearGradient4930-0">
      <stop
         id="stop4932-0"
         offset="0"
         style="stop-color:#000000;stop-opacity:1;" />
      <stop
         id="stop4934-6"
         offset="1"
         style="stop-color:#dcdcda;stop-opacity:1;" />
    </linearGradient>
    <linearGradient
       inkscape:collect="always"
       xlink:href="#linearGradient4930-0"
       id="linearGradient3598-6"
       gradientUnits="userSpaceOnUse"
       x1="492.96603"
       y1="715.50116"
       x2="424.069"
       y2="462.00504" />
    <linearGradient
       id="linearGradient5370">
      <stop
         id="stop5372"
         offset="0"
         style="stop-color:#000000;stop-opacity:1;" />
      <stop
         id="stop5374"
         offset="1"
         style="stop-color:#dcdcda;stop-opacity:1;" />
    </linearGradient>
    <linearGradient
       inkscape:collect="always"
       xlink:href="#linearGradient5495-6-0"
       id="linearGradient3600-6"
       gradientUnits="userSpaceOnUse"
       gradientTransform="translate(-270,-714)"
       x1="416.13235"
       y1="757.6485"
       x2="423.55698"
       y2="829.77338" />
    <linearGradient
       id="linearGradient5495-6-0"
       inkscape:collect="always">
      <stop
         id="stop5497-3-6"
         offset="0"
         style="stop-color:#ffffff;stop-opacity:1;" />
      <stop
         id="stop5499-8-3"
         offset="1"
         style="stop-color:#ffffff;stop-opacity:0;" />
    </linearGradient>
    <radialGradient
       inkscape:collect="always"
       xlink:href="#linearGradient5495-6-0"
       id="radialGradient3602-4"
       gradientUnits="userSpaceOnUse"
       gradientTransform="matrix(0.9997725,-0.02133204,0.00935459,0.4384235,-275.24518,-198.88532)"
       cx="409.01715"
       cy="1015.265"
       fx="409.01715"
       fy="1015.265"
       r="74.599762" />
    <radialGradient
       inkscape:collect="always"
       xlink:href="#linearGradient6521-7"
       id="radialGradient3604-2"
       gradientUnits="userSpaceOnUse"
       cx="146.5"
       cy="136.86218"
       fx="146.5"
       fy="136.86218"
       r="25.5" />
    <linearGradient
       id="linearGradient6521-7"
       inkscape:collect="always">
      <stop
         id="stop6523-8"
         offset="0"
         style="stop-color:#ef2929;stop-opacity:1;" />
      <stop
         id="stop6525-5"
         offset="1"
         style="stop-color:#ef2929;stop-opacity:0;" />
    </linearGradient>
    <radialGradient
       inkscape:collect="always"
       xlink:href="#linearGradient6521-7"
       id="radialGradient3606-1"
       gradientUnits="userSpaceOnUse"
       cx="146.5"
       cy="136.86218"
       fx="146.5"
       fy="136.86218"
       r="25.5" />
    <radialGradient
       inkscape:collect="always"
       xlink:href="#linearGradient7015-3"
       id="radialGradient3608-7"
       gradientUnits="userSpaceOnUse"
       gradientTransform="matrix(1,0,0,0.9285714,0,26.807666)"
       cx="280.72141"
       cy="375.30743"
       fx="280.72141"
       fy="375.30743"
       r="4.9497476" />
    <linearGradient
       id="linearGradient7015-3"
       inkscape:collect="always">
      <stop
         id="stop7017-2"
         offset="0"
         style="stop-color:#fce94f;stop-opacity:1;" />
      <stop
         id="stop7019-1"
         offset="1"
         style="stop-color:#fce94f;stop-opacity:0;" />
    </linearGradient>
    <radialGradient
       r="4.9497476"
       fy="375.30743"
       fx="280.72141"
       cy="375.30743"
       cx="280.72141"
       gradientTransform="matrix(1,0,0,0.9285714,0,26.807666)"
       gradientUnits="userSpaceOnUse"
       id="radialGradient5410"
       xlink:href="#linearGradient7015-3"
       inkscape:collect="always" />
  </defs>
  <sodipodi:namedview
     id="base"
     pagecolor="#ffffff"
     bordercolor="#666666"
     borderopacity="1.0"
     inkscape:pageopacity="0.0"
     inkscape:pageshadow="2"
     inkscape:zoom="1.4"
     inkscape:cx="360.58879"
     inkscape:cy="650.4893"
     inkscape:document-units="px"
     inkscape:current-layer="layer1"
     showgrid="false"
     inkscape:window-width="1680"
     inkscape:window-height="1035"
     inkscape:window-x="0"
     inkscape:window-y="0"
     inkscape:window-maximized="1" />
  <metadata
     id="metadata3423">
    <rdf:RDF>
      <cc:Work
         rdf:about="">
        <dc:format>image/svg+xml</dc:format>
        <dc:type
           rdf:resource="http://purl.org/dc/dcmitype/StillImage" />
        <dc:title></dc:title>
      </cc:Work>
    </rdf:RDF>
  </metadata>
  <g
     inkscape:label="Layer 1"
     inkscape:groupmode="layer"
     id="layer1">
    <g
       transform="matrix(0.45618155,0,0,0.45618155,384.58047,64.633734)"
       id="layer1-1"
       inkscape:label="Layer 1">
      <path
         sodipodi:type="arc"
         style="opacity:0.91941175;fill:#888a85;fill-opacity:1;stroke:url(#linearGradient3596);stroke-width:8.47926235;stroke-linecap:round;stroke-linejoin:bevel;stroke-miterlimit:4;stroke-opacity:1;stroke-dasharray:none;stroke-dashoffset:0"
         id="path4942"
         sodipodi:cx="506.07144"
         sodipodi:cy="593.43359"
         sodipodi:rx="128.92857"
         sodipodi:ry="128.92857"
         d="m 635.00002,593.43359 c 0,71.20529 -57.72329,128.92858 -128.92858,128.92858 -71.20528,0 -128.92857,-57.72329 -128.92857,-128.92858 0,-71.20528 57.72329,-128.92857 128.92857,-128.92857 71.20529,0 128.92858,57.72329 128.92858,128.92857 z"
         transform="matrix(0.8357583,0,0,0.8357583,-279.39054,-368.08493)" />
      <path
         transform="matrix(0.7985892,0,0,-0.7985892,-259.16609,602.4989)"
         d="m 635.00002,593.43359 c 0,71.20529 -57.72329,128.92858 -128.92858,128.92858 -71.20528,0 -128.92857,-57.72329 -128.92857,-128.92858 0,-71.20528 57.72329,-128.92857 128.92857,-128.92857 71.20529,0 128.92858,57.72329 128.92858,128.92857 z"
         sodipodi:ry="128.92857"
         sodipodi:rx="128.92857"
         sodipodi:cy="593.43359"
         sodipodi:cx="506.07144"
         id="path5488-1"
         style="opacity:0.91941175;fill:#2e3436;fill-opacity:1;stroke:url(#linearGradient3598);stroke-width:8.47926235;stroke-linecap:round;stroke-linejoin:bevel;stroke-miterlimit:4;stroke-opacity:1;stroke-dasharray:none;stroke-dashoffset:0"
         sodipodi:type="arc" />
      <path
         sodipodi:nodetypes="csssc"
         id="path5492"
         d="m 220.73212,91.93546 c 0,31.03068 -18.57145,-20.85965 -76.72108,-8.83883 -40.32643,8.33636 -72.47844,39.86951 -72.47844,8.83883 0,-31.03067 33.42069,-56.21498 74.59976,-56.21498 41.17907,0 74.59976,25.18431 74.59976,56.21498 z"
         style="opacity:0.91941175;fill:url(#linearGradient3600);fill-opacity:1;stroke:none"
         inkscape:connector-curvature="0" />
      <path
         style="opacity:0.91941175;fill:url(#radialGradient3602);fill-opacity:1;stroke:none"
         d="m 221.75225,164.42609 c -0.94521,-31.01628 -17.92744,21.41567 -76.41625,11.17169 -40.56165,-7.10414 -73.659249,-37.64329 -72.714043,-6.62701 0.945207,31.01627 35.117513,55.17089 76.277473,53.91656 41.15997,-1.25433 73.79803,-27.44497 72.85282,-58.46124 z"
         id="path6170"
         sodipodi:nodetypes="csssc"
         inkscape:connector-curvature="0" />
      <path
         sodipodi:type="arc"
         style="opacity:0.91941175;fill:url(#radialGradient3604);fill-opacity:1;stroke:none"
         id="path6529"
         sodipodi:cx="146.5"
         sodipodi:cy="136.86218"
         sodipodi:rx="25.5"
         sodipodi:ry="25.5"
         d="m 172,136.86218 c 0,14.08326 -11.41674,25.5 -25.5,25.5 -14.08326,0 -25.5,-11.41674 -25.5,-25.5 0,-14.08326 11.41674,-25.5 25.5,-25.5 14.08326,0 25.5,11.41674 25.5,25.5 z"
         transform="matrix(2.1960784,0,0,2.1960784,-176.74839,-149.02842)" />
      <path
         transform="matrix(1.0882353,0,0,1.0882353,-14.449374,2.5934047)"
         d="m 172,136.86218 c 0,14.08326 -11.41674,25.5 -25.5,25.5 -14.08326,0 -25.5,-11.41674 -25.5,-25.5 0,-14.08326 11.41674,-25.5 25.5,-25.5 14.08326,0 25.5,11.41674 25.5,25.5 z"
         sodipodi:ry="25.5"
         sodipodi:rx="25.5"
         sodipodi:cy="136.86218"
         sodipodi:cx="146.5"
         id="path6519"
         style="opacity:0.91941175;fill:url(#radialGradient3606);fill-opacity:1;stroke:none"
         sodipodi:type="arc" />
      <path
         transform="matrix(1.5670916,0,0,1.5670916,-295.47309,-435.66373)"
         d="m 285.67115,375.30743 c 0,2.53841 -2.21607,4.5962 -4.94974,4.5962 -2.73368,0 -4.94975,-2.05779 -4.94975,-4.5962 0,-2.5384 2.21607,-4.59619 4.94975,-4.59619 2.73367,0 4.94974,2.05779 4.94974,4.59619 z"
         sodipodi:ry="4.5961943"
         sodipodi:rx="4.9497476"
         sodipodi:cy="375.30743"
         sodipodi:cx="280.72141"
         id="path6533"
         style="opacity:0.91941175;fill:url(#radialGradient3608);fill-opacity:1;stroke:none"
         sodipodi:type="arc" />
    </g>
    <g
       id="g3588"
       transform="translate(-377.85714,17.142861)">
      <path
         inkscape:connector-curvature="0"
         id="path3960-0"
         d="m 553.4184,140.32248 c -0.4925,-0.65667 -1.05519,-1.26614 -1.4775,-1.97 -0.0845,-0.14077 0.0734,-0.34567 0,-0.4925 -0.20766,-0.41531 -0.77735,-0.56969 -0.98501,-0.985 -0.0734,-0.14684 0.0734,-0.34567 0,-0.4925 -0.10382,-0.20766 -0.38867,-0.28485 -0.49249,-0.4925 -0.197,-0.39401 0.197,-1.08351 0,-1.47751 -0.10383,-0.20765 -0.41909,-0.27224 -0.49251,-0.4925 -0.0908,-0.27236 0,-2.45903 0,-2.955 0,-0.16417 0,-0.32834 0,-0.4925 0,-0.16417 0.0734,-0.34567 0,-0.4925 -0.10382,-0.20766 -0.38867,-0.28485 -0.4925,-0.49251 -0.0749,-0.14988 0,-1.2557 0,-1.4775 0,-1.31333 0,-2.62667 0,-3.94 0,-0.11945 -0.0158,-1.46167 0,-1.47751 0.11609,-0.11608 0.37642,0.11609 0.4925,0 0.1053,-0.10529 -0.0905,-1.69847 0,-1.97 0.11609,-0.34825 0.37642,-0.63675 0.49251,-0.985 0.0519,-0.15574 -0.11609,-0.37642 0,-0.4925 0.72466,0 0.37641,0.11608 0.985,-0.4925 0.16416,-0.16417 0.38867,-0.28485 0.4925,-0.4925 0.0734,-0.14684 -0.11609,-0.37642 0,-0.49251 0.11608,-0.11608 0.37642,0.11609 0.4925,0 0.25957,-0.25957 0.28887,-0.67956 0.4925,-0.985 0.12878,-0.19317 0.32833,-0.32833 0.4925,-0.4925 0.16417,-0.16416 0.28484,-0.38867 0.4925,-0.4925 0.14684,-0.0734 0.34567,0.0734 0.4925,0 0.20766,-0.10383 0.28485,-0.38867 0.4925,-0.4925 0.14684,-0.0734 0.37642,0.11608 0.4925,0 0.11609,-0.11608 -0.11608,-0.37642 0,-0.4925 0.23217,-0.23217 0.69133,0.14684 0.985,0 0.20766,-0.10383 0.28485,-0.38867 0.49251,-0.4925 0.1781,-0.0891 2.11995,0 2.4625,0 0.82084,0 1.64167,0 2.4625,0 0.16417,0 0.32834,0 0.4925,0 0.16417,0 0.34567,-0.0734 0.49251,0 0.20765,0.10383 0.28484,0.38867 0.4925,0.4925 0.29367,0.14684 0.69133,-0.14684 0.985,0 0.41531,0.20766 0.56969,0.77734 0.985,0.985 0.14684,0.0734 0.37642,-0.11608 0.4925,0 1.019,1.019 -1.55717,-0.0398 0.4925,0.985 0.14684,0.0734 0.34567,-0.0734 0.4925,0 0.20766,0.10383 0.28485,0.38868 0.4925,0.4925 0.14684,0.0734 0.37642,-0.11608 0.4925,0 0.11609,0.11609 -0.0734,0.34567 0,0.4925 0.20766,0.41532 0.77735,0.56969 0.98501,0.98501 0.0734,0.14683 -0.11609,0.37641 0,0.4925 0.11608,0.11608 0.37641,-0.11609 0.4925,0 0.11608,0.11608 -0.11609,0.37641 0,0.4925 0.11608,0.11608 0.37641,-0.11609 0.4925,0 0.23216,0.23217 -0.23217,0.75283 0,0.985 0.11608,0.11608 0.37641,-0.11608 0.4925,0 0.23216,0.23217 -0.14684,0.69133 0,0.985 0.10383,0.20766 0.38867,0.28485 0.4925,0.4925 0.0734,0.14684 0,0.32834 0,0.4925 0,0.16417 0,0.32834 0,0.4925 0,0.82084 0,1.64167 0,2.46251 0,0.82083 0,1.64167 0,2.4625 0,0.16417 0.11608,0.37642 0,0.4925 -0.11608,0.11609 -0.37642,-0.11608 -0.4925,0 -0.23217,0.23217 0.14683,0.69133 0,0.985 -0.20766,0.41532 -0.77735,0.56969 -0.985,0.98501 -0.0734,0.14683 0.0734,0.34566 0,0.4925 -0.10383,0.20765 -0.38868,0.28484 -0.4925,0.4925 -0.0734,0.14683 0.11608,0.37642 0,0.4925 -0.11609,0.11608 -0.37642,-0.11608 -0.49251,0 -0.11608,0.11608 0.0734,0.34566 0,0.4925 -0.10382,0.20766 -0.38867,0.28484 -0.4925,0.4925 -0.0734,0.14684 0.11609,0.37642 0,0.4925 -0.11608,0.11608 -0.34566,-0.0734 -0.4925,0 -0.20765,0.10383 -0.32833,0.32833 -0.4925,0.4925 -0.16417,0.16417 -0.38867,0.28485 -0.4925,0.4925 -0.0734,0.14684 0.11608,0.37642 0,0.4925 -0.11608,0.11609 -0.37642,-0.11608 -0.4925,0 -0.11608,0.11609 0.11608,0.37642 0,0.4925 -0.11608,0.11609 -0.37642,-0.11608 -0.4925,0 -0.11608,0.11609 0.11608,0.37642 0,0.49251 -0.11608,0.11608 -0.37642,-0.11609 -0.4925,0 -0.11608,0.11608 0.0734,0.34566 0,0.4925 -0.54448,1.08894 -0.30567,0.15283 -0.985,0.4925 -0.90671,0.45335 -0.0783,1.02415 -0.985,1.4775 -0.29367,0.14683 -0.75284,-0.23217 -0.98501,0 -0.11608,0.11608 0.11609,0.37642 0,0.4925 -0.11608,0.11608 -0.37641,-0.11608 -0.4925,0 -0.11608,0.11608 0.11609,0.37642 0,0.4925 -0.11851,0.11851 -1.85149,-0.11851 -1.97,0 -0.11608,0.11608 0.11608,0.37642 0,0.4925 -0.13476,0.13476 -1.70283,-0.13359 -1.97,0 -0.20766,0.10383 -0.28485,0.38868 -0.4925,0.4925 -0.14684,0.0734 -0.32834,0 -0.49251,0 -0.16416,0 -0.32833,0 -0.49249,0 -0.82084,0 -1.64167,0 -2.46251,0 z"
         style="fill:#0009f3;fill-opacity:0.41509435;stroke:#000000;stroke-width:0.24377547px;stroke-linecap:butt;stroke-linejoin:miter;stroke-opacity:1" />
      <path
         inkscape:connector-curvature="0"
         id="path3962-7"
         d="m 557.35841,119.63745 c -0.65667,0.32833 -1.64167,1.64167 -1.97001,0.985 -0.32833,-0.65667 1.97001,-1.71918 1.97001,-0.985 0,1.05118 -1.22671,1.7192 -1.97001,2.4625 -0.11608,0.11609 -0.37641,-0.11608 -0.4925,0 -0.0223,0.0223 0,2.23029 0,2.46251 0,0.23221 -0.0223,2.44018 0,2.4625 0.11609,0.11608 0.37642,-0.11608 0.4925,0 0.23217,0.23217 -0.23216,0.75284 0,0.985 0.11609,0.11609 0.37642,-0.11608 0.49251,0 0.23216,0.23217 -0.23217,0.75284 0,0.985 0.11608,0.11609 0.37641,-0.11608 0.49249,0 0.11609,0.11609 -0.11608,0.37642 0,0.4925 0.11609,0.11609 0.37642,-0.11608 0.49251,0 0.11608,0.11609 -0.11609,0.37642 0,0.49251 0.11608,0.11608 0.37641,-0.11609 0.4925,0 0.23216,0.23216 -0.23217,0.75283 0,0.985 0.23216,0.23216 0.75283,-0.23217 0.985,0 0.11608,0.11608 -0.11609,0.37641 0,0.4925 0.23216,0.23216 0.75283,-0.23217 0.985,0 0.11608,0.11608 -0.11608,0.37642 0,0.4925 0.24625,0.24625 1.23125,-0.24625 1.4775,0 0.11609,0.11608 -0.11608,0.37642 0,0.4925 0.11609,0.11608 0.32834,0 0.4925,0 0.82084,0 1.64167,0 2.46251,0 0.16416,0 0.37641,0.11608 0.4925,0 0.11608,-0.11608 -0.11609,-0.37642 0,-0.4925 0.24625,-0.24625 1.23125,0.24625 1.4775,0 0.11608,-0.11608 -0.11608,-0.37642 0,-0.4925 0.11608,-0.11609 0.37642,0.11608 0.4925,0 0.11608,-0.11609 -0.11608,-0.37642 0,-0.4925 0.11608,-0.11609 0.37642,0.11608 0.4925,0 0.11609,-0.11609 -0.11608,-0.37642 0,-0.4925 0.11609,-0.11609 0.37642,0.11608 0.4925,0 0.11609,-0.11609 -0.11608,-0.37642 0,-0.4925 0.11609,-0.11609 0.37642,0.11608 0.4925,0 0.23217,-0.23217 -0.23216,-0.75284 0,-0.98501 0.11609,-0.11608 0.37642,0.11609 0.4925,0 0.0223,-0.0223 0,-2.23029 0,-2.4625 0,-0.16417 0,-0.32833 0,-0.4925 0,-0.16417 -0.11608,-0.37642 0,-0.4925 0.11609,-0.11609 0.37642,0.11608 0.49251,0 0.0223,-0.0223 0,-2.23029 0,-2.46251 0,-0.16416 0,-0.32833 0,-0.4925 0,-0.16416 0.11608,-0.37641 0,-0.4925 -0.11609,-0.11608 -0.37642,0.11609 -0.49251,0 -0.11608,-0.11608 0.0734,-0.34566 0,-0.4925 -0.10382,-0.20766 -0.38867,-0.28484 -0.4925,-0.4925 -0.0734,-0.14683 0.11609,-0.37642 0,-0.4925 -0.11608,-0.11608 -0.37641,0.11608 -0.4925,0 -0.11608,-0.11608 0.11609,-0.37642 0,-0.4925 -0.11608,-0.11608 -0.37641,0.11608 -0.4925,0 -0.11608,-0.11608 0.11609,-0.37642 0,-0.4925 -0.10068,-0.10069 -1.28223,0.0976 -1.4775,0 -0.20766,-0.10383 -0.28485,-0.38867 -0.4925,-0.4925 -0.1295,-0.0647 -1.71246,0 -1.97,0 -2.95966,0 -1.98794,-0.19342 -5.41751,0.4925 z"
         style="fill:#0009f3;fill-opacity:0.41509435;stroke:#000000;stroke-width:0.24377547px;stroke-linecap:butt;stroke-linejoin:miter;stroke-opacity:1" />
      <path
         inkscape:connector-curvature="0"
         id="path3964-4"
         d="m 551.4484,138.35248 c 2.32167,-0.14083 -0.58042,1.88209 0,2.4625 0.11608,0.11609 0.37641,-0.11608 0.4925,0 0.11608,0.11609 -0.11609,0.37642 0,0.4925 0.11608,0.11609 0.32833,0 0.4925,0 0.16416,0 0.37641,0.11609 0.4925,0 0.11608,-0.11608 -0.11609,-0.37641 0,-0.4925 1.019,-1.019 -0.0398,1.55717 0.985,-0.4925 0.0734,-0.14683 -0.0734,-0.34566 0,-0.4925 0.10383,-0.20766 0.38867,-0.28484 0.4925,-0.4925 0.0734,-0.14684 -0.11608,-0.37642 0,-0.4925 0.11609,-0.11608 0.37642,0.11608 0.4925,0 0.0159,-0.0158 0,-1.35806 0,-1.4775 0,-0.16417 0.11609,-0.37642 0,-0.4925 -0.23217,-0.23217 -0.75283,0.23216 -0.985,0 -0.11608,-0.11609 0,-0.32834 0,-0.4925 -0.82083,0.65666 -1.64167,1.31333 -2.4625,1.97 z"
         style="fill:none;stroke:#000000;stroke-width:0.24377547px;stroke-linecap:butt;stroke-linejoin:miter;stroke-opacity:1" />
      <path
         inkscape:connector-curvature="0"
         id="path3966-6"
         d="m 549.97089,138.35248 c -0.56361,0.97651 -2.61132,-1.85544 -2.955,-1.97 -0.31149,-0.10383 -0.67352,0.10382 -0.985,0 -0.44051,-0.14684 -0.5445,-0.83817 -0.985,-0.98501 -0.31149,-0.10382 -0.66647,0.0796 -0.98501,0 -2.37826,-0.59456 0.0244,-0.23404 -1.4775,-0.985 -0.14683,-0.0734 -0.34566,0.0734 -0.4925,0 -0.20765,-0.10383 -0.28484,-0.38867 -0.4925,-0.4925 -0.14683,-0.0734 -0.34567,0.0734 -0.4925,0 -0.20766,-0.10383 -0.28485,-0.38867 -0.4925,-0.4925 -0.14684,-0.0734 -0.34567,0.0734 -0.4925,0 -0.20766,-0.10383 -0.28485,-0.38867 -0.4925,-0.4925 -0.14684,-0.0734 -0.34567,0.0734 -0.4925,0 -0.20766,-0.10383 -0.29933,-0.36372 -0.4925,-0.4925 -0.30544,-0.20362 -0.67957,-0.28888 -0.98501,-0.4925 -0.97567,0.0492 -0.23293,-0.72543 -0.4925,-0.985 -0.25957,-0.25957 -0.67956,-0.28888 -0.985,-0.4925 -0.19317,-0.12879 -0.32833,-0.32834 -0.4925,-0.4925 -0.16417,-0.16417 -0.38867,-0.28485 -0.4925,-0.49251 -0.0734,-0.14683 0.11608,-0.37641 0,-0.4925 -0.11608,-0.11608 -0.34566,0.0734 -0.4925,0 -0.20766,-0.10382 -0.28484,-0.38867 -0.4925,-0.4925 -0.14684,-0.0734 -0.37642,0.11609 -0.4925,0 -0.11609,-0.11608 -0.16417,-0.4925 0,-0.4925 0.16416,0 0.11608,0.37642 0,0.4925 -0.11609,0.11609 -0.32834,0 -0.4925,0 -0.32834,1.14917 -0.65667,2.29834 -0.98501,3.44751 -0.16416,0.32833 -0.37641,0.63675 -0.4925,0.985 -0.10616,0.3185 0,1.92474 0,2.4625 0,0.16779 -0.0888,1.70346 0,1.97001 0.11609,0.34825 0.37642,0.63675 0.4925,0.985 0.0519,0.15574 -0.0734,0.34566 0,0.4925 0.10383,0.20766 0.38868,0.28484 0.49251,0.4925 0.0734,0.14684 -0.0734,0.34567 0,0.4925 0.2955,0.591 1.182,0.8865 1.4775,1.4775 0.0734,0.14684 -0.0734,0.34567 0,0.49251 0.10383,0.20765 0.32833,0.32833 0.4925,0.49249 0.16417,0.16417 0.29932,0.36372 0.4925,0.49251 0.24802,1.08506 1.01317,0.26033 1.4775,0.4925 0.41532,0.20765 0.56969,0.77734 0.985,0.985 0.14684,0.0734 0.34567,-0.0734 0.4925,0 0.41532,0.20766 0.5445,0.83817 0.98501,0.985 0.31148,0.10383 0.67351,-0.10383 0.985,0 0.22025,0.0734 0.28484,0.38867 0.4925,0.4925 0.29367,0.14684 0.69133,-0.14683 0.985,0 0.20766,0.10383 0.28485,0.38867 0.4925,0.4925 0.394,0.197 1.0835,-0.197 1.4775,0 0.20766,0.10383 0.27225,0.41909 0.4925,0.4925 0.46723,0.15575 0.98501,0 1.47751,0 1.14916,0 2.29833,0 3.4475,0 1.31334,0 2.62667,0 3.94001,0 0.16417,0 0.32833,0 0.4925,0 0.16417,0 0.37642,0.11609 0.4925,0 0.11609,-0.11608 -0.11608,-0.37641 0,-0.4925 0.11609,-0.11608 0.37642,0.11609 0.4925,0 0.11609,-0.11608 -0.11608,-0.37641 0,-0.4925 0.11609,-0.11608 0.34567,0.0734 0.4925,0 0.20766,-0.10383 0.32834,-0.32833 0.4925,-0.4925 0.16417,-0.16417 0.38868,-0.28484 0.49251,-0.4925 0.14683,-0.29367 -0.23217,-0.75283 0,-0.985 0.11608,-0.11608 0.37641,0.11608 0.49249,0 0.11609,-0.11608 0,-0.32834 0,-0.4925 0,-0.16417 0.11609,-0.37642 0,-0.4925 -0.11608,-0.11609 -0.37641,0.11608 -0.49249,0 -0.11609,-0.11609 0.0734,-0.34567 0,-0.49251 -0.20766,-0.41531 -0.77735,-0.56968 -0.98501,-0.985 -0.0734,-0.14683 0.11609,-0.37641 0,-0.4925 -0.11608,-0.11608 -0.34566,0.0734 -0.4925,0 -0.20766,-0.10383 -0.32833,-0.32833 -0.4925,-0.4925 -0.16417,-0.16416 -0.36372,-0.29932 -0.4925,-0.4925 -0.20362,-0.30543 -0.37642,-0.63675 -0.4925,-0.985 -0.0519,-0.15574 0.11608,-0.37642 0,-0.4925 -0.11609,-0.11608 -0.37642,0.11608 -0.4925,0 -0.23217,-0.23217 0.14683,-0.69133 0,-0.985 -0.10383,-0.20766 -0.38867,-0.28485 -0.4925,-0.4925 -0.0734,-0.14684 0,-0.32834 0,-0.4925 -0.65667,0.65666 -1.31334,2.62667 -1.97001,1.97 -0.67687,-0.67688 1.12199,-1.57372 1.47751,-2.4625 0.061,-0.15243 -0.37642,0.11608 -0.49251,0 -0.11608,-0.11609 0.11609,-0.37642 0,-0.49251 -0.11608,-0.11608 -0.34566,0.0734 -0.49249,0 -0.20766,-0.10382 -0.32834,-0.32833 -0.49251,-0.4925 -0.38468,-0.38468 -1.05252,-1.19418 -1.4775,-1.4775 -0.30543,-0.20362 -0.72543,-0.23293 -0.985,-0.4925 -0.11608,-0.11608 0.11608,-0.37642 0,-0.4925 -0.11608,-0.11608 -0.3559,0.0911 -0.4925,0 -1.49104,1.2153 -0.84713,-1.33963 -0.985,-1.4775 -0.11609,-0.11609 -0.37642,0.11608 -0.4925,0 -0.11609,-0.11609 0.11608,-0.37642 0,-0.4925 -0.11609,-0.11609 -0.34567,0.0734 -0.4925,0 -0.20766,-0.10383 -0.28485,-0.38868 -0.4925,-0.4925 -0.14684,-0.0734 -0.37642,0.11608 -0.49251,0 -0.11608,-0.11609 0.11609,-0.37642 0,-0.49251 -0.23216,-0.23216 -0.75283,0.23217 -0.985,0 -0.11608,-0.11608 0.11609,-0.37641 0,-0.4925 -0.11608,-0.11608 -0.34566,0.0734 -0.4925,0 -0.20766,-0.10382 -0.28484,-0.38867 -0.4925,-0.4925 -0.29367,-0.14683 -0.75283,0.23217 -0.985,0 -0.11608,-0.11608 0.11608,-0.37641 0,-0.4925 -0.11608,-0.11608 -0.34567,0.0734 -0.4925,0 -0.20766,-0.10383 -0.28485,-0.38867 -0.4925,-0.4925 -0.14684,-0.0734 -0.34567,0.0734 -0.4925,0 -0.20766,-0.10383 -0.28485,-0.38867 -0.4925,-0.4925 -0.17811,-0.089 -2.11995,0 -2.46251,0 -0.18111,0 -1.37921,-0.059 -1.4775,0 -0.70386,0.42232 -1.31334,0.985 -1.97,1.4775"
         style="fill:none;stroke:#000000;stroke-width:0.24377547px;stroke-linecap:butt;stroke-linejoin:miter;stroke-opacity:1" />
      <path
         inkscape:connector-curvature="0"
         id="path3968-9"
         d="m 530.76336,117.17494 c -0.82083,0.32834 -1.64167,0.65667 -2.4625,0.98501 -0.16417,0.16416 -0.29933,0.36371 -0.4925,0.4925 -0.30544,0.20362 -0.69133,0.27224 -0.985,0.4925 -0.37147,0.2786 -0.65667,0.65666 -0.98501,0.985 -0.16416,0.16417 -0.36371,0.29932 -0.4925,0.4925 -0.20362,0.30544 -0.32833,0.65667 -0.4925,0.985 -0.16416,0.32834 -0.37641,0.63675 -0.4925,0.985 -0.0951,0.2853 0,1.54321 0,1.97001 0,0.32833 0,0.65666 0,0.985 0,0.32833 -0.10383,0.67352 0,0.985 0.14684,0.44051 0.72744,0.59865 0.985,0.985 0.20363,0.30544 0.28888,0.67957 0.4925,0.985 0.25757,0.38635 0.77735,0.56969 0.98501,0.985 0.0734,0.14684 -0.0734,0.34567 0,0.49251 1.02483,2.04967 -0.034,-0.52651 0.985,0.4925 0.11608,0.11608 -0.0734,0.34566 0,0.4925 0.10382,0.20765 0.32833,0.32833 0.4925,0.4925 0.16417,0.16417 0.28484,0.38867 0.4925,0.4925 0.14683,0.0734 0.37642,-0.11608 0.4925,0 0.11608,0.11608 -0.11608,0.37642 0,0.4925 0.11608,0.11608 0.34567,-0.0734 0.4925,0 0.20766,0.10383 0.28485,0.38867 0.4925,0.4925 0.29367,0.14684 0.75284,-0.23217 0.985,0 0.11609,0.11608 -0.11608,0.37642 0,0.4925 0.24625,0.24625 1.23125,-0.24625 1.47751,0 0.11608,0.11608 -0.11609,0.37642 0,0.4925 0.1525,0.1525 2.31,-0.1525 2.4625,0 0.11608,0.11609 -0.11608,0.37642 0,0.4925 0.0158,0.0159 1.35806,0 1.4775,0 1.31334,0 2.62667,0 3.94001,0 0.16416,0 0.37642,0.11609 0.4925,0 0.11608,-0.11608 -0.11608,-0.37641 0,-0.4925 0.23217,-0.23216 0.75283,0.23217 0.985,0 0.11608,-0.11608 -0.11608,-0.37642 0,-0.4925 0.11608,-0.11608 0.37642,0.11608 0.4925,0 0.23217,-0.23217 -0.14683,-0.69133 0,-0.985 0.20766,-0.41531 0.77735,-0.56969 0.985,-0.985 0.14684,-0.29367 -0.14683,-0.69133 0,-0.985 0.10383,-0.20766 0.41909,-0.27225 0.4925,-0.4925 0.0846,-0.25373 0,-2.92653 0,-3.44751 0,-0.82083 0,-1.64167 0,-2.4625 0,-0.49251 0.15575,-1.01028 0,-1.47751 -0.72466,-2.174 -0.4925,1.78934 -0.4925,-1.4775 0,-1.155 0.11609,0.23217 -0.4925,-0.985 -0.14683,-0.29367 0.14684,-0.69133 0,-0.985 -0.10382,-0.20766 -0.38867,-0.28485 -0.4925,-0.4925 -0.0734,-0.14684 0.0734,-0.34567 0,-0.4925 -0.10383,-0.20766 -0.38867,-0.28485 -0.4925,-0.49251 -0.0734,-0.14683 0.11608,-0.37641 0,-0.4925 -0.11608,-0.11608 -0.37642,0.11609 -0.4925,0 -0.11608,-0.11608 0.11608,-0.37641 0,-0.4925 -0.11608,-0.11608 -0.37642,0.11609 -0.4925,0 -0.11608,-0.11608 0.11608,-0.37641 0,-0.4925 -0.23217,-0.23216 -0.69133,0.14684 -0.985,0 -0.20766,-0.10383 -0.28485,-0.38867 -0.4925,-0.4925 -0.394,-0.197 -1.0835,0.197 -1.47751,0 -0.20765,-0.10383 -0.28484,-0.38867 -0.4925,-0.4925 -0.14683,-0.0734 -0.34566,0.0734 -0.4925,0 -0.20765,-0.10383 -0.28484,-0.38867 -0.4925,-0.4925 -0.1781,-0.0891 -2.11995,0 -2.4625,0 -0.82084,0 -1.64167,0 -2.46251,0 -0.16416,0 -0.43153,-0.15243 -0.4925,0 -0.31088,0.77722 0.0994,3.05442 -0.4925,2.4625 -0.6965,-0.6965 0,-1.97 0,-2.955 0,-1.4775 0,-2.95501 0,-4.43251 0,-0.32833 0,-0.65667 0,-0.985 0,-0.32833 0.0796,-0.66647 0,-0.985 -0.089,-0.35613 -0.40347,-0.62888 -0.4925,-0.985 -0.15926,-0.63706 0.12879,-1.32609 0,-1.97001 -0.10181,-0.50906 -0.39069,-0.96844 -0.4925,-1.4775 -0.0644,-0.32196 0,-0.65667 0,-0.985 -0.16417,-0.4925 -0.39069,-0.96844 -0.4925,-1.4775 -0.0644,-0.32196 0,-0.65667 0,-0.985005 0,-1.477502 0,-2.955005 0,-4.432507 0,-0.492501 0,-0.985002 0,-1.477503 0,-0.164167 0.0734,-0.345665 0,-0.492501 -0.10383,-0.207656 -0.41908,-0.272247 -0.4925,-0.4925 -0.0752,-0.22545 0,-2.187612 0,-2.462504 0,-0.820835 0,-1.64167 0,-2.462505 0,-0.328334 0,-0.656667 0,-0.985001 0,-0.164167 -0.0519,-0.336759 0,-0.492501 0.11608,-0.348251 0.37642,-0.636751 0.4925,-0.985002 0.0519,-0.155742 0,-0.328334 0,-0.4925 0,-0.328334 0,-0.656668 0,-0.985002 0,-0.820835 0,-1.64167 0,-2.462504 0,-2.790838 0,-5.581676 0,-8.372514 0,-0.656668 0,-1.313336 0,-1.970004 0,-0.164166 0,-0.328334 0,-0.492499 0,-0.164169 0.0734,-0.345667 0,-0.492502 -0.10383,-0.207656 -0.38867,-0.284845 -0.4925,-0.4925 -0.0505,-0.101028 -0.0695,-1.408047 0,-1.477504 0.0198,-0.01982 1.78914,0 1.97,0 0.985,0 1.97001,0 2.95501,0 0.32362,0 1.19963,-0.09262 1.4775,0 0.34825,0.116084 0.63675,0.376419 0.985,0.492502 0.15574,0.05191 0.34567,-0.07342 0.4925,0 0.20766,0.103827 0.27225,0.419082 0.4925,0.4925 0.31149,0.103829 0.67352,-0.103829 0.985,0 0.22026,0.07342 0.27225,0.419084 0.49251,0.492502 0.26477,0.08826 1.55302,0 1.97,0 0.23221,0 2.44018,-0.02233 2.4625,0 0.11609,0.116083 0,0.328334 0,0.4925 0,0.656667 0,1.313335 0,1.970003 0,0.117034 -0.0552,1.859619 0,1.970003 0.10383,0.207657 0.38868,0.284844 0.4925,0.492501 0.0891,0.178105 0,2.11995 0,2.462504 0,0.164167 -0.11608,0.376418 0,0.492501 0.11609,0.116084 0.37642,-0.116083 0.4925,0 0.11609,0.116084 0,0.328334 0,0.492501 0,0.820835 0,1.641669 0,2.462504 0,0.164167 0,0.328334 0,0.492501 0,0.164167 0.11609,0.376417 0,0.492501 -0.11608,0.116083 -0.34566,0.07342 -0.4925,0 -0.41531,-0.207657 -0.59865,-0.727436 -0.985,-0.985002 -0.30543,-0.203624 -0.65667,-0.328334 -0.985,-0.492501 -0.32833,-0.164167 -0.67956,-0.288877 -0.985,-0.492501 -0.19318,-0.128783 -0.28485,-0.388672 -0.4925,-0.4925 -0.14684,-0.07342 -0.32834,0 -0.4925,0 -0.16417,-0.164167 -0.28485,-0.388673 -0.4925,-0.492501 -0.14684,-0.07342 -0.37642,0.116083 -0.4925,0 -0.11609,-0.116084 0.11608,-0.376417 0,-0.492501 -0.11609,-0.116084 -0.37642,0.116084 -0.49251,0 -0.11608,-0.116084 0.11609,-0.376417 0,-0.492501 -0.0198,-0.01982 -1.78913,0 -1.97,0 -0.11944,0 -1.46166,-0.01584 -1.4775,0 -0.11608,0.116084 -0.11608,0.376417 0,0.492501 0.11608,0.116084 0.37642,-0.116084 0.4925,0 0.10069,0.100685 -0.0976,1.28223 0,1.477502 0.10383,0.207657 0.38867,0.284845 0.4925,0.492501 0.0734,0.146836 -0.11608,0.376417 0,0.492501 0.11608,0.116084 0.37642,-0.116084 0.4925,0 0.24625,0.24625 -0.24625,1.231252 0,1.477502 0.11608,0.116084 0.37642,-0.116083 0.4925,0 0.11851,0.118511 -0.11851,1.851493 0,1.970004 0.11609,0.116083 0.37642,-0.116084 0.4925,0 0.11609,0.116083 -0.11608,0.376417 0,0.492501 0.0159,0.01584 1.35806,0 1.47751,0 1.97,0 3.94,0 5.91001,0 0.11944,0 1.46166,-0.01584 1.4775,0 0.0493,0.04925 0.0493,1.428252 0,1.477502 -0.11609,0.116084 -0.37642,-0.116084 -0.4925,0 -0.32846,0.328455 0.32845,0.656546 0,0.985002 -0.11609,0.116083 -0.37642,-0.116084 -0.4925,0 -0.11609,0.116083 0.0734,0.345665 0,0.492501 -0.10383,0.207656 -0.38868,0.284844 -0.4925,0.4925 -0.14684,0.293671 0.14683,0.691331 0,0.985002 -0.10383,0.207657 -0.38868,0.284844 -0.49251,0.492501 -0.0734,0.146835 0.11609,0.376417 0,0.492501 -0.11608,0.116083 -0.37641,-0.116084 -0.4925,0 -0.11608,0.116083 0,0.328334 0,0.492501 0,0.164167 -0.11608,0.376417 0,0.4925 0.11609,0.116084 0.4925,-0.164167 0.4925,0 0,0.164167 -0.4925,-0.164167 -0.4925,0 0,0.232168 0.4925,0.260334 0.4925,0.492501 0,0.164167 -0.32833,0 -0.4925,0 -0.4925,0 -1.01027,0.155742 -1.4775,0 -0.22025,-0.07342 -0.28484,-0.388673 -0.4925,-0.492501 -0.14683,-0.07342 -0.33676,0.05191 -0.4925,0 -0.34825,-0.116083 -0.63675,-0.376417 -0.985,-0.4925 -0.15574,-0.05191 -0.34567,0.07342 -0.4925,0 -0.20766,-0.103829 -0.28485,-0.388673 -0.4925,-0.492501 -0.29367,-0.146836 -0.75284,0.232167 -0.98501,0 -0.11608,-0.116084 0.11609,-0.376418 0,-0.492501 -0.23216,-0.232167 -0.75283,0.232167 -0.985,0 -0.11608,-0.116084 0.11609,-0.376417 0,-0.492501 -0.23216,-0.232167 -0.75283,0.232167 -0.985,0 -0.11608,-0.116084 0,-0.328334 0,-0.492501 -0.16416,0 -0.37642,0.116084 -0.4925,0 -0.11608,-0.116083 0.11608,-0.376417 0,-0.492501 -0.23217,-0.232167 -0.69133,0.146836 -0.985,0 -0.20766,-0.103828 -0.28484,-0.388672 -0.4925,-0.4925 -0.14684,-0.07342 -0.32834,0 -0.4925,0 -0.16417,0 -0.37642,-0.116084 -0.4925,0 -0.11609,0.116083 0.16416,0.4925 0,0.4925 -0.16417,0 0,-0.656667 0,-0.4925 0,1.149168 0,2.298337 0,3.447505 0,5.91001 0,11.82002 0,17.73003 0,0.23221 -0.0223,2.44018 0,2.4625 0.11608,0.11609 0.37641,-0.11608 0.4925,0 0.23216,0.23217 -0.23217,0.75284 0,0.98501 0.11608,0.11608 0.37641,-0.11609 0.4925,0 0.11851,0.11851 -0.11851,1.85149 0,1.97 0.11608,0.11608 0.37642,-0.11608 0.4925,0 0.11608,0.11608 0,0.32833 0,0.4925 0,0.16417 0,0.32833 0,0.4925 0,0.23221 -0.0223,2.44018 0,2.4625 0.11608,0.11609 0.37642,-0.11608 0.4925,0 0.11608,0.11609 0,0.32834 0,0.49251 0,0.82083 0,1.64166 0,2.4625 0,0.16417 0.11608,0.37642 0,0.4925 -0.0159,0.0158 -1.35806,0 -1.4775,0 -0.16417,0 -0.37642,0.11608 -0.4925,0 -0.11609,-0.11608 0.11608,-0.37642 0,-0.4925 -0.23217,-0.23217 -0.75284,0.23217 -0.98501,0 -0.11608,-0.11608 0.11609,-0.37642 0,-0.4925 -0.23216,-0.23217 -0.75283,0.23217 -0.985,0 -0.11608,-0.11608 0.11609,-0.37642 0,-0.4925 -0.11608,-0.11609 -0.34566,0.0734 -0.4925,0 -0.20765,-0.10383 -0.28484,-0.38867 -0.4925,-0.4925 -0.14683,-0.0734 -0.53232,0.15926 -0.4925,0 0.17806,-0.71226 1.14427,-1.25331 0.985,-1.97001 -0.22803,-1.02615 -1.38691,-1.58786 -1.97,-2.4625 -0.0911,-0.1366 0,-0.32833 0,-0.4925 0,-0.16417 0,-0.32833 0,-0.4925"
         style="fill:none;stroke:#000000;stroke-width:0.24377547px;stroke-linecap:butt;stroke-linejoin:miter;stroke-opacity:1" />
      <path
         inkscape:connector-curvature="0"
         id="path3970-0"
         d="m 533.22587,119.63745 -3.44751,2.955"
         style="fill:none;stroke:#000000;stroke-width:0.24377547px;stroke-linecap:butt;stroke-linejoin:miter;stroke-opacity:1" />
    </g>
    <rect
       style="opacity:0.53191457;fill:#00f34e;fill-opacity:0.41509435;stroke:#000000;stroke-width:2.15570283;stroke-miterlimit:4;stroke-opacity:1;stroke-dasharray:none;stroke-dashoffset:0"
       id="rect4329-2"
       width="55.125153"
       height="84.48571"
       x="41.710224"
       y="446.92386"
       rx="0.36108547"
       ry="0.34094071" />
    <rect
       style="opacity:0.53191457;fill:#00f34e;fill-opacity:0.41509435;stroke:#000000;stroke-width:2.0605123;stroke-miterlimit:4;stroke-opacity:1;stroke-dasharray:none;stroke-dashoffset:0"
       id="rect4331-6"
       width="8.8650141"
       height="14.282524"
       x="46.182339"
       y="452.23248"
       rx="0.39235619"
       ry="0.28666916"
       inkscape:tile-cx="825.29462"
       inkscape:tile-cy="1832.1999"
       inkscape:tile-w="36.36549"
       inkscape:tile-h="58.588848"
       inkscape:tile-x0="807.11188"
       inkscape:tile-y0="1802.9055" />
    <use
       x="0"
       y="0"
       inkscape:tiled-clone-of="#rect4331-6"
       xlink:href="#rect4331-6"
       transform="translate(0,28.565049)"
       id="use4357-8"
       width="744.09448"
       height="1052.3622" />
    <use
       x="0"
       y="0"
       inkscape:tiled-clone-of="#rect4331-6"
       xlink:href="#rect4331-6"
       transform="translate(0,57.130095)"
       id="use4359-0"
       width="744.09448"
       height="1052.3622" />
    <use
       x="0"
       y="0"
       inkscape:tiled-clone-of="#rect4331-6"
       xlink:href="#rect4331-6"
       transform="translate(17.730029,0)"
       id="use4361-5"
       width="744.09448"
       height="1052.3622" />
    <use
       x="0"
       y="0"
       inkscape:tiled-clone-of="#rect4331-6"
       xlink:href="#rect4331-6"
       transform="translate(17.730029,28.565049)"
       id="use4363-1"
       width="744.09448"
       height="1052.3622" />
    <use
       x="0"
       y="0"
       inkscape:tiled-clone-of="#rect4331-6"
       xlink:href="#rect4331-6"
       transform="translate(17.730029,57.130095)"
       id="use4365-3"
       width="744.09448"
       height="1052.3622" />
    <use
       x="0"
       y="0"
       inkscape:tiled-clone-of="#rect4331-6"
       xlink:href="#rect4331-6"
       transform="translate(35.460058,0)"
       id="use4367-1"
       width="744.09448"
       height="1052.3622" />
    <use
       x="0"
       y="0"
       inkscape:tiled-clone-of="#rect4331-6"
       xlink:href="#rect4331-6"
       transform="translate(35.460058,28.565049)"
       id="use4369-5"
       width="744.09448"
       height="1052.3622" />
    <use
       x="0"
       y="0"
       inkscape:tiled-clone-of="#rect4331-6"
       xlink:href="#rect4331-6"
       transform="translate(35.460058,57.130095)"
       id="use4371-5"
       width="744.09448"
       height="1052.3622" />
    <path
       style="fill:none;stroke:#000000;stroke-width:1px;stroke-linecap:butt;stroke-linejoin:miter;stroke-opacity:1;marker-start:none;marker-end:url(#Arrow1Lend)"
       d="m 233.57143,133.07647 135,1.42857"
       id="path3610"
       inkscape:connector-curvature="0" />
    <path
       style="fill:none;stroke:#000000;stroke-width:1px;stroke-linecap:butt;stroke-linejoin:miter;stroke-opacity:1;marker-start:none;marker-end:url(#Arrow1Lend)"
       d="m 209.1947,589.92951 135,1.42857"
       id="path3610-4"
       inkscape:connector-curvature="0" />
    <text
       xml:space="preserve"
       style="font-size:40px;font-style:normal;font-weight:normal;line-height:125%;letter-spacing:0px;word-spacing:0px;fill:#000000;fill-opacity:1;stroke:none;font-family:Sans"
       x="258.57144"
       y="122.36218"
       id="text5234"
       sodipodi:linespacing="125%"><tspan
         sodipodi:role="line"
         id="tspan5236"
         x="258.57144"
         y="122.36218"
         style="font-size:20px">RFID#</tspan></text>
    <path
       style="fill:none;stroke:#000000;stroke-width:1px;stroke-linecap:butt;stroke-linejoin:miter;stroke-opacity:1;marker-start:none;marker-end:url(#Arrow1Lend)"
       d="m 360.35714,221.79603 -135,1.42857"
       id="path3610-4-6"
       inkscape:connector-curvature="0" />
    <text
       xml:space="preserve"
       style="font-size:20px;font-style:normal;font-weight:normal;line-height:125%;letter-spacing:0px;word-spacing:0px;fill:#000000;fill-opacity:1;stroke:none;font-family:Sans"
       x="268.57144"
       y="193.07648"
       id="text5262"
       sodipodi:linespacing="125%"><tspan
         sodipodi:role="line"
         id="tspan5264"></tspan></text>
    <text
       xml:space="preserve"
       style="font-size:40px;font-style:normal;font-weight:normal;line-height:125%;letter-spacing:0px;word-spacing:0px;fill:#000000;fill-opacity:1;stroke:none;font-family:Sans"
       x="240"
       y="208.07648"
       id="text5266"
       sodipodi:linespacing="125%"><tspan
         sodipodi:role="line"
         id="tspan5268"
         x="240"
         y="208.07648"
         style="font-size:20px">Navn, token</tspan></text>
    <text
       xml:space="preserve"
       style="font-size:40px;font-style:normal;font-weight:normal;line-height:125%;letter-spacing:0px;word-spacing:0px;fill:#000000;fill-opacity:1;stroke:none;font-family:Sans"
       x="156.6947"
       y="470.4957"
       id="text5270"
       sodipodi:linespacing="125%"><tspan
         sodipodi:role="line"
         id="tspan5272"
         x="156.6947"
         y="470.4957"
         style="font-size:20px">RFID</tspan><tspan
         sodipodi:role="line"
         x="156.6947"
         y="495.4957"
         style="font-size:20px"
         id="tspan5276">Vare</tspan><tspan
         sodipodi:role="line"
         x="156.6947"
         y="520.49567"
         style="font-size:20px"
         id="tspan5278">Pris</tspan><tspan
         sodipodi:role="line"
         x="156.6947"
         y="545.49567"
         style="font-size:20px"
         id="tspan5280">SHA1(RFID, vare, pris, pin, token)</tspan><tspan
         sodipodi:role="line"
         x="156.6947"
         y="570.49567"
         id="tspan5274"
         style="font-size:20px" /></text>
    <path
       style="fill:none;stroke:#000000;stroke-width:1px;stroke-linecap:butt;stroke-linejoin:miter;stroke-opacity:1;marker-start:none;marker-end:url(#Arrow1Lend)"
       d="m 344.19471,694.92951 -135,1.42857"
       id="path3610-4-1"
       inkscape:connector-curvature="0" />
    <text
       xml:space="preserve"
       style="font-size:40px;font-style:normal;font-weight:normal;line-height:125%;letter-spacing:0px;word-spacing:0px;fill:#000000;fill-opacity:1;stroke:none;font-family:Sans"
       x="211.69472"
       y="656.92419"
       id="text5306"
       sodipodi:linespacing="125%"><tspan
         sodipodi:role="line"
         id="tspan5308"
         x="211.69472"
         y="656.92419"
         style="font-size:20px">200 OK</tspan><tspan
         sodipodi:role="line"
         x="211.69472"
         y="706.92419"
         id="tspan5512"
         style="font-size:20px">404 Founds Not Found</tspan></text>
    <text
       xml:space="preserve"
       style="font-size:40px;font-style:normal;font-weight:normal;line-height:125%;letter-spacing:0px;word-spacing:0px;fill:#000000;fill-opacity:1;stroke:none;font-family:Sans"
       x="407.14285"
       y="41.647896"
       id="text5340"
       sodipodi:linespacing="125%"><tspan
         sodipodi:role="line"
         id="tspan5342"
         x="407.14285"
         y="41.647896">https://hal.osaa/food</tspan></text>
    <g
       transform="matrix(0.45618155,0,0,0.45618155,490.22356,566.16757)"
       id="layer1-1-8"
       inkscape:label="Layer 1">
      <path
         sodipodi:type="arc"
         style="opacity:0.91941175;fill:#888a85;fill-opacity:1;stroke:url(#linearGradient3596-8);stroke-width:8.47926235;stroke-linecap:round;stroke-linejoin:bevel;stroke-miterlimit:4;stroke-opacity:1;stroke-dasharray:none;stroke-dashoffset:0"
         id="path4942-1"
         sodipodi:cx="506.07144"
         sodipodi:cy="593.43359"
         sodipodi:rx="128.92857"
         sodipodi:ry="128.92857"
         d="m 635.00002,593.43359 c 0,71.20529 -57.72329,128.92858 -128.92858,128.92858 -71.20528,0 -128.92857,-57.72329 -128.92857,-128.92858 0,-71.20528 57.72329,-128.92857 128.92857,-128.92857 71.20529,0 128.92858,57.72329 128.92858,128.92857 z"
         transform="matrix(0.8357583,0,0,0.8357583,-279.39054,-368.08493)" />
      <path
         transform="matrix(0.7985892,0,0,-0.7985892,-259.16609,602.4989)"
         d="m 635.00002,593.43359 c 0,71.20529 -57.72329,128.92858 -128.92858,128.92858 -71.20528,0 -128.92857,-57.72329 -128.92857,-128.92858 0,-71.20528 57.72329,-128.92857 128.92857,-128.92857 71.20529,0 128.92858,57.72329 128.92858,128.92857 z"
         sodipodi:ry="128.92857"
         sodipodi:rx="128.92857"
         sodipodi:cy="593.43359"
         sodipodi:cx="506.07144"
         id="path5488-1-9"
         style="opacity:0.91941175;fill:#2e3436;fill-opacity:1;stroke:url(#linearGradient3598-6);stroke-width:8.47926235;stroke-linecap:round;stroke-linejoin:bevel;stroke-miterlimit:4;stroke-opacity:1;stroke-dasharray:none;stroke-dashoffset:0"
         sodipodi:type="arc" />
      <path
         sodipodi:nodetypes="csssc"
         id="path5492-0"
         d="m 220.73212,91.93546 c 0,31.03068 -18.57145,-20.85965 -76.72108,-8.83883 -40.32643,8.33636 -72.47844,39.86951 -72.47844,8.83883 0,-31.03067 33.42069,-56.21498 74.59976,-56.21498 41.17907,0 74.59976,25.18431 74.59976,56.21498 z"
         style="opacity:0.91941175;fill:url(#linearGradient3600-6);fill-opacity:1;stroke:none"
         inkscape:connector-curvature="0" />
      <path
         style="opacity:0.91941175;fill:url(#radialGradient3602-4);fill-opacity:1;stroke:none"
         d="m 221.75225,164.42609 c -0.94521,-31.01628 -17.92744,21.41567 -76.41625,11.17169 -40.56165,-7.10414 -73.659249,-37.64329 -72.714043,-6.62701 0.945207,31.01627 35.117513,55.17089 76.277473,53.91656 41.15997,-1.25433 73.79803,-27.44497 72.85282,-58.46124 z"
         id="path6170-7"
         sodipodi:nodetypes="csssc"
         inkscape:connector-curvature="0" />
      <path
         sodipodi:type="arc"
         style="opacity:0.91941175;fill:url(#radialGradient3604-2);fill-opacity:1;stroke:none"
         id="path6529-6"
         sodipodi:cx="146.5"
         sodipodi:cy="136.86218"
         sodipodi:rx="25.5"
         sodipodi:ry="25.5"
         d="m 172,136.86218 c 0,14.08326 -11.41674,25.5 -25.5,25.5 -14.08326,0 -25.5,-11.41674 -25.5,-25.5 0,-14.08326 11.41674,-25.5 25.5,-25.5 14.08326,0 25.5,11.41674 25.5,25.5 z"
         transform="matrix(2.1960784,0,0,2.1960784,-176.74839,-149.02842)" />
      <path
         transform="matrix(1.0882353,0,0,1.0882353,-14.449374,2.5934047)"
         d="m 172,136.86218 c 0,14.08326 -11.41674,25.5 -25.5,25.5 -14.08326,0 -25.5,-11.41674 -25.5,-25.5 0,-14.08326 11.41674,-25.5 25.5,-25.5 14.08326,0 25.5,11.41674 25.5,25.5 z"
         sodipodi:ry="25.5"
         sodipodi:rx="25.5"
         sodipodi:cy="136.86218"
         sodipodi:cx="146.5"
         id="path6519-8"
         style="opacity:0.91941175;fill:url(#radialGradient3606-1);fill-opacity:1;stroke:none"
         sodipodi:type="arc" />
      <path
         transform="matrix(1.5670916,0,0,1.5670916,-295.47309,-435.66373)"
         d="m 285.67115,375.30743 c 0,2.53841 -2.21607,4.5962 -4.94974,4.5962 -2.73368,0 -4.94975,-2.05779 -4.94975,-4.5962 0,-2.5384 2.21607,-4.59619 4.94975,-4.59619 2.73367,0 4.94974,2.05779 4.94974,4.59619 z"
         sodipodi:ry="4.5961943"
         sodipodi:rx="4.9497476"
         sodipodi:cy="375.30743"
         sodipodi:cx="280.72141"
         id="path6533-6"
         style="opacity:0.91941175;fill:url(#radialGradient5410);fill-opacity:1;stroke:none"
         sodipodi:type="arc" />
    </g>
  </g>
</svg>
