<?xml version="1.0" encoding="UTF-8" standalone="no"?>
<!-- Created using Karbon14, part of koffice: http://www.koffice.org/karbon -->
<svg xmlns:dc="http://purl.org/dc/elements/1.1/" xmlns:cc="http://web.resource.org/cc/" xmlns:rdf="http://www.w3.org/1999/02/22-rdf-syntax-ns#" xmlns:svg="http://www.w3.org/2000/svg" xmlns="http://www.w3.org/2000/svg" xmlns:sodipodi="http://inkscape.sourceforge.net/DTD/sodipodi-0.dtd" xmlns:inkscape="http://www.inkscape.org/namespaces/inkscape" width="430.00000pt" height="400.00000px" id="svg2" sodipodi:version="0.32" inkscape:version="0.42" sodipodi:docname="club_mate_logo.svg" sodipodi:docbase="/home/oliw/Documents/gfx/logos/clubmate">
  <metadata id="metadata46">
    <rdf:RDF>
      <cc:Work rdf:about="">
        <dc:format>image/svg+xml</dc:format>
        <dc:type rdf:resource="http://purl.org/dc/dcmitype/StillImage"/>
      </cc:Work>
    </rdf:RDF>
  </metadata>
  <sodipodi:namedview inkscape:window-height="543" inkscape:window-width="836" inkscape:pageshadow="2" inkscape:pageopacity="0.0" borderopacity="1.0" bordercolor="#666666" pagecolor="#ffffff" id="base" inkscape:zoom="0.46843434" inkscape:cx="306.00000" inkscape:cy="396.00000" inkscape:window-x="0" inkscape:window-y="48" inkscape:current-layer="svg2"/>
  <defs id="defs4"/>
  <g id="g1447" transform="translate(-37.46600,-130.7000)">
    <g transform="matrix(1.000000,0.000000,0.000000,-1.000000,0.000000,792.0000)" id="g11">
      <path style="fill:#0032fc;fill-rule:evenodd" id="path13" d="M 450.72000,574.05600 L 450.72000,579.88800 C 451.29600,577.94400 451.87200,576.07200 452.44800,574.12800 C 451.87200,574.12800 451.29600,574.12800 450.72000,574.05600 L 450.72000,574.05600 z M 450.72000,616.89600 C 455.47200,616.89600 461.59200,618.76800 464.83200,617.11200 C 464.97600,601.48800 464.97600,589.82400 462.74400,573.48000 C 471.74400,573.48000 476.20800,573.48000 485.20800,573.48000 C 484.20000,581.54400 483.12000,600.04800 484.99200,616.60800 C 489.45600,616.60800 493.12800,615.31200 496.15200,615.16800 C 497.73600,621.21600 499.82400,626.97600 500.47200,633.16800 C 482.25600,633.31200 464.97600,632.52000 454.46400,634.60800 C 453.02400,630.50400 451.80000,627.76800 450.72000,624.16800 L 450.72000,616.89600 L 450.72000,616.89600 z M 552.52800,615.88800 C 552.60000,621.57600 550.29600,627.04800 548.85600,634.46400 C 537.76800,633.02400 518.25600,633.96000 507.02400,633.16800 C 506.37600,609.48000 506.73600,597.52800 507.02400,573.48000 C 523.72800,573.48000 532.08000,573.48000 548.85600,573.48000 C 550.15200,577.36800 550.80000,579.31200 551.95200,583.20000 C 552.81600,585.14400 552.81600,586.51200 552.24000,588.31200 C 542.95200,587.66400 535.82400,587.16000 525.02400,588.24000 C 524.16000,591.04800 524.01600,593.35200 524.88000,596.01600 C 534.45600,596.01600 539.28000,596.01600 548.85600,596.01600 C 550.87200,601.56000 546.40800,605.52000 545.68800,611.56800 C 540.07200,610.41600 532.65600,610.70400 524.66400,611.49600 C 524.44800,612.93600 524.23200,613.72800 523.72800,615.38400 C 523.72800,617.11200 525.16800,618.04800 526.24800,618.04800 C 536.90400,618.04800 543.31200,617.11200 552.52800,615.88800 z M 450.72000,624.16800 L 450.72000,616.89600 C 450.14400,616.89600 449.49600,616.89600 448.99200,616.96800 C 449.56800,619.92000 450.14400,622.15200 450.72000,624.16800 L 450.72000,624.16800 z M 450.72000,579.88800 C 445.46400,596.66400 439.12800,612.86400 430.27200,634.10400 C 426.24000,634.10400 423.21600,634.10400 420.19200,634.17600 L 420.19200,607.89600 C 423.07200,604.72800 424.08000,601.77600 425.37600,597.09600 C 425.73600,596.16000 425.52000,595.00800 424.36800,594.86400 C 423.07200,594.79200 421.70400,594.93600 420.19200,595.08000 L 420.19200,581.90400 C 422.92800,581.90400 425.66400,581.97600 428.97600,582.26400 C 429.98400,579.52800 430.48800,576.50400 432.50400,573.98400 C 439.92000,574.05600 443.80800,573.91200 450.72000,574.05600 L 450.72000,579.88800 z M 420.19200,634.17600 L 420.19200,607.89600 C 420.12000,607.96800 420.04800,608.11200 419.90400,608.18400 C 417.96000,603.28800 414.79200,600.69600 414.86400,595.44000 C 416.66400,595.58400 418.46400,595.29600 420.19200,595.08000 L 420.19200,581.90400 C 416.73600,581.97600 413.35200,582.19200 408.81600,582.19200 C 407.66400,578.80800 407.08800,577.15200 406.00800,573.76800 C 398.44800,573.91200 394.70400,574.05600 387.21600,574.27200 C 390.81600,589.82400 401.54400,610.70400 410.18400,634.17600 C 414.21600,634.17600 417.24000,634.17600 420.19200,634.17600 L 420.19200,634.17600 z M 228.74400,573.48000 L 228.74400,588.96000 C 229.96800,589.32000 231.04800,589.75200 232.27200,589.82400 C 234.36000,589.89600 235.87200,591.84000 233.56800,594.28800 C 232.27200,595.58400 230.76000,596.59200 228.74400,597.24000 L 228.74400,610.56000 C 229.10400,610.56000 229.46400,610.63200 229.89600,610.70400 C 235.00800,611.49600 236.73600,617.90400 230.04000,619.99200 C 229.53600,620.06400 229.10400,620.13600 228.74400,620.20800 L 228.74400,634.46400 C 229.24800,634.53600 229.82400,634.53600 230.40000,634.60800 C 237.74400,635.11200 243.00000,632.23200 246.45600,628.56000 C 248.61600,626.25600 249.76800,625.10400 251.92800,622.80000 C 256.17600,618.26400 256.46400,614.16000 253.29600,610.41600 C 250.56000,607.24800 249.19200,605.66400 246.96000,602.78400 C 248.54400,599.61600 250.70400,597.09600 253.00800,595.22400 C 257.97600,590.97600 256.32000,586.58400 254.01600,582.76800 C 248.25600,573.04800 239.11200,572.54400 228.74400,573.48000 L 228.74400,573.48000 z M 264.45600,587.95200 C 264.09600,588.38400 263.95200,588.67200 263.66400,589.10400 C 266.25600,595.00800 267.62400,597.96000 270.36000,603.57600 C 281.66400,603.72000 287.42400,603.64800 298.80000,603.43200 C 299.23200,602.71200 299.23200,602.71200 299.52000,602.28000 C 298.51200,597.16800 298.00800,594.64800 297.07200,589.53600 C 297.07200,589.53600 296.56800,588.24000 295.77600,588.24000 C 285.19200,588.09600 273.16800,587.66400 264.45600,587.95200 L 264.45600,587.95200 z M 302.76000,573.98400 C 304.84800,590.18400 312.62400,612.64800 316.29600,633.67200 C 321.40800,633.60000 324.00000,633.60000 329.11200,633.60000 C 332.71200,623.66400 334.51200,618.76800 338.11200,608.97600 C 338.76000,606.52800 339.62400,608.18400 340.20000,608.97600 C 343.65600,618.98400 345.38400,623.95200 348.76800,633.96000 C 352.51200,634.17600 354.38400,634.17600 358.12800,634.32000 C 360.50400,634.46400 361.58400,633.16800 361.72800,632.08800 C 365.04000,616.39200 375.33600,594.64800 380.30400,574.41600 C 380.52000,573.84000 379.65600,573.40800 379.00800,573.48000 C 375.33600,573.62400 365.32800,573.26400 359.78400,573.98400 C 357.91200,578.66400 357.33600,592.05600 354.81600,595.22400 C 352.08000,591.40800 349.12800,580.32000 345.52800,573.62400 C 341.78400,573.62400 339.91200,573.62400 336.16800,573.62400 C 332.56800,573.62400 332.78400,578.01600 332.06400,579.67200 C 329.83200,584.78400 328.82400,590.18400 326.01600,594.28800 C 323.64000,587.37600 322.92000,581.11200 321.69600,573.98400 C 314.78400,573.76800 310.32000,572.90400 302.76000,573.98400 z M 76.032000,634.10400 C 73.440000,634.10400 70.992000,633.96000 67.680000,632.23200 C 61.632000,629.13600 55.872000,626.61600 50.184000,618.69600 C 47.664000,615.16800 44.568000,609.69600 44.424000,603.28800 L 44.424000,602.42400 C 44.496000,599.04000 45.432000,595.36800 47.736000,591.62400 C 52.200000,584.28000 61.632000,577.58400 72.432000,573.33600 C 74.664000,572.47200 75.528000,573.04800 77.112000,573.33600 C 80.928000,578.73600 82.800000,581.40000 86.544000,586.72800 C 81.072000,588.60000 75.960000,588.96000 70.344000,594.36000 C 64.800000,599.61600 61.632000,605.37600 69.768000,612.28800 C 78.984000,619.99200 84.240000,618.55200 86.544000,620.71200 C 82.368000,626.04000 80.280000,628.70400 76.032000,634.10400 L 76.032000,634.10400 z M 228.74400,634.46400 L 228.74400,620.20800 C 227.23200,620.35200 226.15200,620.49600 224.35200,620.71200 C 223.12800,617.54400 222.40800,614.66400 223.84800,610.70400 C 225.36000,610.48800 226.72800,610.34400 228.74400,610.56000 L 228.74400,597.24000 C 227.37600,597.67200 225.72000,597.96000 223.84800,598.10400 C 222.76800,595.65600 222.62400,592.12800 223.70400,588.45600 C 225.72000,588.09600 227.30400,588.52800 228.74400,588.96000 L 228.74400,573.48000 C 227.37600,573.62400 226.00800,573.69600 224.64000,573.91200 C 217.00800,574.63200 212.61600,574.77600 205.84800,574.27200 L 204.26400,576.64800 C 204.55200,599.47200 204.76800,611.13600 205.20000,634.32000 C 213.55200,632.88000 220.75200,633.88800 228.74400,634.46400 L 228.74400,634.46400 z M 91.872000,634.32000 C 94.248000,610.20000 93.960000,586.00800 91.872000,573.62400 C 100.80000,572.25600 116.35200,573.91200 127.58400,573.62400 C 128.95200,578.88000 132.91200,586.72800 133.92000,590.97600 C 126.07200,590.18400 119.66400,589.10400 113.61600,590.18400 C 113.61600,607.32000 113.61600,615.88800 113.61600,633.02400 C 104.97600,633.60000 100.58400,633.81600 91.872000,634.32000 L 91.872000,634.32000 z M 139.46400,633.60000 C 142.05600,612.28800 139.96800,598.82400 138.16800,580.17600 C 146.23200,577.29600 151.77600,575.20800 160.70400,573.33600 C 166.39200,576.79200 169.56000,578.44800 175.46400,580.17600 C 175.82400,578.37600 176.11200,577.22400 176.76000,574.99200 C 184.89600,575.13600 188.92800,575.28000 197.06400,575.49600 C 195.98400,593.64000 194.90400,609.33600 197.28000,631.94400 C 196.84800,632.80800 196.63200,633.24000 196.63200,633.24000 C 191.52000,633.81600 186.76800,634.10400 180.43200,633.31200 C 178.84800,617.18400 178.12800,609.19200 176.54400,593.06400 C 176.32800,591.40800 175.60800,590.54400 174.67200,589.68000 C 170.49600,589.89600 163.87200,587.59200 160.48800,591.19200 C 160.20000,608.83200 160.70400,616.75200 159.48000,633.81600 C 152.56800,634.32000 147.31200,634.32000 139.46400,633.60000 z "/>
      <path style="fill:#ffcc00;fill-rule:evenodd" id="path15" d="M 420.26400,588.96000 L 420.26400,590.83200 C 425.37600,590.97600 430.77600,591.04800 436.03200,590.68800 C 430.34400,604.29600 427.53600,611.13600 421.84800,624.74400 C 421.20000,624.74400 420.76800,624.81600 420.26400,624.81600 L 420.26400,626.54400 L 421.20000,626.47200 C 423.07200,626.32800 423.64800,626.11200 424.22400,624.67200 C 431.13600,607.68000 434.66400,599.25600 441.57600,582.26400 C 442.08000,581.04000 440.85600,580.60800 439.99200,582.26400 C 438.98400,584.56800 438.48000,585.64800 437.40000,587.95200 C 436.75200,588.96000 435.88800,589.10400 434.16000,589.24800 C 429.26400,589.17600 424.58400,589.03200 420.26400,588.96000 L 420.26400,588.96000 z M 542.66400,625.03200 C 542.59200,625.75200 542.52000,626.04000 542.44800,626.76000 C 531.36000,626.83200 525.88800,626.90400 514.80000,626.97600 C 515.01600,607.82400 514.51200,598.32000 515.44800,579.16800 C 525.96000,578.30400 533.16000,578.88000 542.59200,579.31200 C 542.30400,580.03200 542.23200,580.46400 542.01600,581.18400 C 532.44000,580.82400 527.68800,580.96800 517.82400,581.11200 C 517.10400,589.82400 517.46400,594.14400 517.46400,602.64000 C 526.60800,602.64000 531.21600,602.64000 540.43200,602.64000 C 540.36000,603.36000 540.36000,603.72000 540.36000,604.36800 C 531.28800,604.36800 526.75200,604.36800 517.68000,604.36800 C 516.52800,612.64800 516.74400,618.26400 516.88800,625.17600 C 527.18400,625.10400 532.36800,625.10400 542.66400,625.03200 L 542.66400,625.03200 z M 472.96800,623.95200 C 468.14400,624.09600 465.69600,624.16800 460.87200,624.24000 C 460.08000,624.24000 459.36000,626.25600 460.22400,626.40000 C 462.96000,626.61600 464.32800,626.83200 467.06400,627.12000 C 476.71200,626.97600 481.53600,626.90400 491.11200,626.76000 C 490.17600,625.53600 489.74400,624.96000 488.80800,623.80800 C 483.84000,623.88000 481.32000,623.95200 476.42400,623.95200 C 476.28000,606.74400 476.20800,598.17600 476.20800,580.96800 C 474.98400,580.96800 474.33600,580.96800 473.11200,580.96800 C 473.04000,598.17600 473.04000,606.74400 472.96800,623.95200 z M 229.17600,604.80000 C 232.84800,604.80000 235.29600,604.94400 237.60000,607.39200 C 239.25600,609.12000 240.62400,609.55200 241.84800,611.56800 C 243.50400,614.30400 243.14400,615.88800 241.20000,619.12800 C 240.12000,620.85600 239.18400,621.50400 237.60000,623.08800 C 234.86400,625.68000 232.12800,626.40000 229.32000,626.40000 L 229.17600,626.32800 L 229.17600,627.98400 C 233.20800,627.69600 236.44800,626.47200 238.53600,624.67200 C 240.98400,622.51200 241.99200,621.57600 243.28800,619.63200 C 245.37600,616.46400 246.02400,613.72800 242.92800,610.05600 C 240.26400,606.88800 238.03200,605.30400 234.07200,603.79200 C 237.81600,600.84000 240.91200,598.68000 243.28800,594.50400 C 245.37600,590.83200 245.88000,586.15200 241.20000,583.63200 C 238.03200,581.90400 235.72800,581.18400 231.91200,581.18400 L 229.17600,581.25600 L 229.17600,582.76800 C 231.84000,582.69600 233.92800,583.20000 235.80000,583.77600 C 237.60000,584.28000 238.53600,584.78400 240.12000,585.86400 C 243.14400,587.95200 243.00000,590.47200 241.70400,593.35200 C 241.05600,594.86400 240.76800,595.80000 239.61600,597.02400 C 236.44800,600.55200 233.06400,601.63200 229.17600,602.35200 L 229.17600,604.80000 L 229.17600,604.80000 z M 420.26400,626.54400 L 420.26400,624.81600 C 419.83200,624.81600 419.40000,624.88800 418.82400,624.88800 C 413.56800,613.58400 410.18400,605.16000 404.49600,590.97600 C 408.88800,590.61600 414.36000,590.76000 420.26400,590.83200 L 420.26400,588.96000 C 413.85600,588.74400 408.24000,588.67200 403.48800,589.10400 C 402.12000,586.51200 401.04000,584.92800 399.45600,582.12000 C 398.66400,580.75200 397.36800,580.39200 398.30400,582.55200 C 406.00800,600.33600 408.81600,608.61600 417.52800,626.90400 C 418.60800,626.76000 419.32800,626.68800 420.26400,626.54400 L 420.26400,626.54400 z M 311.47200,580.82400 C 312.33600,580.68000 312.76800,580.60800 313.63200,580.46400 C 317.80800,596.08800 319.89600,603.93600 324.07200,619.63200 C 330.33600,605.52000 334.29600,598.32000 339.62400,583.63200 C 340.20000,582.04800 341.06400,582.69600 341.42400,583.63200 C 345.74400,596.66400 347.90400,603.21600 352.36800,616.39200 C 352.72800,617.54400 353.08800,618.55200 353.95200,619.20000 C 359.35200,603.86400 362.08800,596.16000 367.56000,580.82400 C 368.49600,580.82400 368.92800,580.75200 369.93600,580.68000 C 364.96800,591.91200 360.14400,606.81600 353.59200,624.24000 C 348.26400,609.55200 345.60000,602.20800 340.20000,587.59200 C 333.64800,602.28000 330.33600,609.62400 323.78400,624.38400 C 318.88800,606.96000 316.44000,598.24800 311.47200,580.82400 L 311.47200,580.82400 z M 274.53600,597.09600 C 273.38400,596.59200 273.16800,595.44000 274.32000,595.65600 C 281.16000,595.94400 285.48000,595.00800 291.52800,596.23200 C 290.08800,597.24000 282.09600,597.52800 274.53600,597.09600 z M 216.21600,625.89600 C 215.85600,617.68800 215.78400,613.65600 215.42400,605.37600 C 220.60800,605.16000 223.12800,604.80000 228.31200,604.80000 L 229.17600,604.80000 L 229.17600,602.35200 C 228.74400,602.42400 228.24000,602.49600 227.80800,602.56800 C 223.56000,603.21600 220.82400,603.21600 215.92800,603.07200 C 215.20800,595.36800 215.56800,591.62400 215.71200,583.77600 C 220.53600,583.34400 222.98400,583.20000 227.80800,582.76800 C 228.24000,582.76800 228.74400,582.76800 229.17600,582.76800 L 229.17600,581.25600 C 223.48800,581.25600 219.81600,581.32800 213.48000,581.40000 C 213.40800,599.68800 213.33600,608.76000 213.33600,627.12000 C 219.16800,628.05600 222.76800,628.41600 228.67200,628.05600 C 228.81600,627.98400 229.03200,627.98400 229.17600,627.98400 L 229.17600,626.32800 C 224.06400,626.18400 221.47200,626.11200 216.21600,625.89600 L 216.21600,625.89600 z M 151.77600,626.97600 C 150.69600,626.90400 150.19200,626.83200 149.18400,626.76000 C 149.97600,614.66400 149.47200,604.87200 148.60800,590.18400 C 148.46400,587.23200 149.32800,585.14400 151.56000,584.35200 C 154.08000,583.48800 155.23200,582.76800 157.82400,582.04800 C 159.69600,581.54400 160.70400,581.68800 162.57600,582.04800 C 170.13600,583.27200 173.80800,583.84800 181.51200,585.14400 C 183.81600,585.57600 185.18400,585.14400 185.47200,584.13600 C 185.97600,581.90400 187.56000,582.91200 187.56000,584.35200 C 187.56000,598.82400 187.27200,609.91200 189.14400,626.18400 C 189.21600,626.90400 187.70400,627.40800 187.56000,626.76000 C 185.47200,618.04800 185.68800,603.79200 185.68800,586.72800 C 176.04000,586.08000 172.29600,584.92800 163.44000,583.48800 C 161.85600,583.20000 159.62400,582.69600 156.88800,583.99200 C 153.64800,585.50400 150.40800,587.16000 150.48000,588.74400 C 151.20000,603.79200 152.06400,615.88800 151.77600,626.97600 L 151.77600,626.97600 z M 102.09600,625.39200 C 103.24800,625.39200 103.82400,625.39200 104.97600,625.39200 C 104.90400,608.47200 104.83200,599.97600 104.68800,583.12800 C 112.39200,582.26400 116.85600,582.55200 123.98400,582.76800 C 123.33600,581.97600 122.97600,581.61600 122.40000,580.68000 C 114.26400,580.96800 110.23200,581.04000 102.09600,581.18400 C 102.09600,598.89600 102.09600,607.68000 102.09600,625.39200 L 102.09600,625.39200 z M 73.728000,625.17600 C 71.712000,624.67200 70.488000,624.88800 68.760000,623.80800 C 62.928000,620.42400 60.984000,617.90400 56.736000,613.15200 C 51.768000,607.60800 52.488000,599.47200 56.088000,594.64800 C 62.424000,586.22400 66.888000,584.64000 73.224000,581.54400 C 73.656000,582.19200 73.800000,582.48000 74.232000,583.12800 C 66.888000,584.64000 62.280000,589.68000 59.256000,593.85600 C 55.224000,599.47200 53.856000,604.87200 58.320000,611.56800 C 62.568000,617.90400 67.392000,619.70400 73.728000,625.17600 z "/>
    </g>
    <g transform="matrix(1.000000,0.000000,0.000000,-1.000000,0.000000,792.0000)" id="g17">
      <path style="fill:#ff0000;fill-rule:evenodd" id="path19" d="M 300.67200,550.00800 C 360.07200,550.00800 408.45600,501.62400 408.45600,442.29600 C 408.45600,382.96800 360.07200,334.58400 300.67200,334.58400 L 300.67200,329.18400 L 306.28800,324.86400 L 315.07200,334.08000 L 324.57600,327.38400 L 330.62400,338.04000 L 342.93600,330.40800 L 347.04000,341.06400 L 358.41600,336.16800 L 358.63200,349.84800 L 370.94400,345.02400 L 373.03200,356.32800 L 382.53600,356.32800 L 382.53600,367.70400 L 392.04000,368.64000 L 391.32000,380.88000 L 403.12800,382.96800 L 399.88800,394.34400 L 409.17600,394.99200 L 404.06400,404.49600 L 414.00000,407.30400 L 407.95200,416.08800 L 416.30400,418.89600 L 409.17600,427.17600 L 417.02400,433.15200 L 409.17600,440.78400 L 417.24000,446.83200 L 410.97600,452.88000 L 419.32800,458.20800 L 408.88800,463.75200 L 417.24000,471.60000 L 405.43200,476.71200 L 412.63200,485.06400 L 400.32000,488.30400 L 403.34400,497.59200 L 394.05600,501.04800 L 398.52000,510.98400 L 384.84000,510.33600 L 385.48800,523.29600 L 373.46400,521.64000 L 373.96800,533.44800 L 363.31200,530.42400 L 361.22400,542.23200 L 349.63200,538.56000 L 348.69600,547.84800 L 335.01600,544.32000 L 330.84000,555.69600 L 318.81600,548.78400 L 314.42400,558.93600 L 302.83200,550.36800 L 300.67200,553.17600 L 300.67200,550.00800 z M 300.67200,334.58400 C 241.41600,334.58400 193.03200,382.96800 193.03200,442.29600 C 193.03200,501.62400 241.41600,550.00800 300.67200,550.00800 L 300.67200,553.17600 L 296.85600,558.21600 L 289.72800,549.64800 L 279.72000,557.56800 L 272.08800,546.40800 L 266.54400,552.88800 L 260.71200,543.16800 L 249.84000,547.56000 L 248.04000,536.68800 L 237.81600,540.43200 L 236.66400,529.99200 L 225.79200,530.92800 L 224.64000,520.05600 L 214.92000,521.85600 L 214.41600,508.68000 L 202.60800,508.46400 L 206.06400,496.15200 L 197.06400,495.72000 L 199.36800,484.12800 L 191.01600,481.32000 L 195.40800,472.75200 L 189.14400,470.95200 L 193.82400,463.03200 L 185.47200,460.51200 L 193.32000,452.37600 L 182.95200,445.89600 L 192.67200,438.98400 L 184.53600,433.87200 L 192.88800,428.76000 L 185.90400,420.91200 L 194.25600,416.59200 L 187.56000,409.82400 L 198.43200,408.24000 L 191.95200,399.16800 L 202.39200,396.43200 L 197.71200,386.42400 L 208.36800,385.27200 L 204.69600,374.90400 L 216.50400,373.03200 L 212.32800,364.68000 L 226.22400,363.31200 L 226.22400,350.06400 L 236.88000,354.24000 L 236.66400,342.93600 L 250.99200,345.67200 L 250.12800,335.01600 L 263.08800,338.25600 L 269.56800,328.53600 L 279.07200,333.64800 L 286.48800,325.29600 L 297.14400,331.99200 L 300.67200,329.18400 L 300.67200,334.58400 z "/>
      <path style="fill:#ffffff" id="path21" d="M 301.10400,549.57600 C 360.43200,549.57600 408.81600,501.19200 408.81600,441.86400 C 408.81600,382.60800 360.43200,334.22400 301.10400,334.22400 C 241.84800,334.22400 193.46400,382.60800 193.46400,441.86400 C 193.46400,501.19200 241.84800,549.57600 301.10400,549.57600 z "/>
      <path style="fill:#0032fc;fill-rule:evenodd" id="path23" d="M 405.36000,441.86400 C 405.36000,409.24800 390.09600,380.01600 366.40800,360.86400 L 366.40800,367.27200 C 387.21600,385.48800 400.39200,412.27200 400.39200,441.86400 C 400.39200,471.52800 387.21600,498.24000 366.40800,516.45600 L 366.40800,522.93600 C 390.09600,503.78400 405.36000,474.48000 405.36000,441.86400 L 405.36000,441.86400 z M 366.40800,409.03200 C 366.48000,410.18400 366.76800,411.40800 367.63200,412.56000 C 369.64800,415.15200 372.09600,418.17600 369.36000,421.05600 C 371.23200,429.33600 372.24000,433.44000 374.18400,441.72000 C 373.60800,441.93600 373.24800,442.08000 372.67200,442.29600 C 370.72800,434.16000 369.72000,430.12800 367.77600,421.34400 C 367.27200,421.20000 366.76800,420.98400 366.40800,420.84000 L 366.40800,419.54400 C 368.13600,420.12000 371.16000,419.97600 368.92800,416.66400 C 368.06400,415.22400 367.20000,413.78400 366.40800,412.41600 L 366.40800,409.03200 L 366.40800,409.03200 z M 366.40800,442.29600 C 367.27200,442.29600 367.92000,443.01600 367.92000,443.88000 C 367.92000,444.67200 367.27200,445.39200 366.40800,445.46400 L 366.40800,442.29600 L 366.40800,442.29600 z M 366.40800,479.01600 C 368.20800,480.16800 370.08000,481.53600 372.09600,482.97600 C 374.68800,484.92000 378.43200,489.02400 368.92800,487.87200 C 368.06400,487.80000 367.20000,487.65600 366.40800,487.58400 L 366.40800,479.01600 z M 366.40800,360.86400 C 365.61600,360.21600 364.82400,359.64000 364.03200,358.99200 L 364.03200,365.32800 C 364.82400,365.90400 365.61600,366.62400 366.40800,367.27200 L 366.40800,360.86400 L 366.40800,360.86400 z M 364.03200,524.73600 C 364.82400,524.16000 365.61600,523.58400 366.40800,522.93600 L 366.40800,516.45600 C 365.61600,517.17600 364.82400,517.82400 364.03200,518.47200 L 364.03200,524.73600 L 364.03200,524.73600 z M 366.40800,487.58400 L 366.40800,479.01600 C 365.61600,478.51200 364.82400,478.00800 364.03200,477.57600 L 364.03200,487.29600 C 364.82400,487.36800 365.61600,487.51200 366.40800,487.58400 L 366.40800,487.58400 z M 366.40800,445.46400 L 366.40800,442.29600 L 366.33600,442.29600 C 365.54400,442.29600 364.82400,442.94400 364.82400,443.88000 C 364.82400,444.67200 365.54400,445.46400 366.33600,445.46400 L 366.40800,445.46400 L 366.40800,445.46400 z M 366.40800,420.84000 L 366.40800,419.54400 C 365.97600,419.40000 365.61600,419.25600 365.47200,419.11200 C 364.89600,418.68000 364.46400,418.32000 364.03200,417.88800 L 364.03200,419.25600 C 364.75200,419.90400 365.47200,420.40800 366.40800,420.84000 L 366.40800,420.84000 z M 366.40800,412.41600 L 366.40800,409.03200 C 366.12000,407.08800 366.26400,405.14400 364.03200,403.99200 L 364.03200,408.74400 C 364.89600,409.96800 365.61600,411.19200 366.40800,412.41600 L 366.40800,412.41600 z M 364.03200,436.60800 L 364.03200,438.76800 C 364.68000,438.76800 365.11200,438.26400 365.11200,437.68800 C 365.11200,437.11200 364.68000,436.68000 364.03200,436.60800 z M 364.03200,358.99200 C 363.45600,358.56000 362.80800,358.05600 362.23200,357.62400 L 362.23200,363.81600 C 362.80800,364.32000 363.45600,364.82400 364.03200,365.32800 L 364.03200,358.99200 L 364.03200,358.99200 z M 362.23200,526.17600 C 362.80800,525.67200 363.45600,525.24000 364.03200,524.73600 L 364.03200,518.47200 C 363.45600,518.97600 362.80800,519.48000 362.23200,519.98400 L 362.23200,526.17600 L 362.23200,526.17600 z M 364.03200,487.29600 L 364.03200,477.57600 C 363.45600,477.21600 362.80800,476.85600 362.23200,476.49600 L 362.23200,487.08000 C 362.80800,487.15200 363.45600,487.22400 364.03200,487.29600 L 364.03200,487.29600 z M 364.03200,438.76800 L 364.03200,436.60800 L 364.03200,436.60800 C 363.45600,436.60800 362.95200,437.11200 362.95200,437.68800 C 362.95200,438.26400 363.45600,438.76800 364.03200,438.76800 L 364.03200,438.76800 L 364.03200,438.76800 z M 364.03200,419.25600 L 364.03200,417.88800 C 363.38400,417.16800 362.73600,416.52000 362.23200,415.72800 L 362.23200,417.16800 C 362.80800,418.03200 363.45600,418.68000 364.03200,419.25600 L 364.03200,419.25600 z M 364.03200,408.74400 L 364.03200,403.99200 C 364.03200,403.92000 363.96000,403.92000 363.88800,403.84800 C 362.37600,403.12800 361.94400,401.04000 362.52000,399.52800 C 363.09600,398.08800 362.88000,396.86400 362.23200,395.64000 L 362.23200,406.15200 C 362.88000,407.01600 363.45600,407.88000 364.03200,408.74400 L 364.03200,408.74400 z M 362.23200,427.10400 L 362.23200,429.26400 L 362.23200,429.26400 C 362.73600,429.26400 363.31200,428.76000 363.31200,428.11200 C 363.31200,427.60800 362.73600,427.10400 362.23200,427.10400 L 362.23200,427.10400 z M 362.23200,357.62400 C 360.72000,356.54400 359.20800,355.53600 357.69600,354.52800 L 357.69600,360.50400 C 359.28000,361.58400 360.72000,362.66400 362.23200,363.81600 L 362.23200,357.62400 L 362.23200,357.62400 z M 357.69600,529.27200 C 359.20800,528.26400 360.72000,527.25600 362.23200,526.17600 L 362.23200,519.98400 C 360.72000,521.13600 359.28000,522.21600 357.69600,523.29600 L 357.69600,529.27200 L 357.69600,529.27200 z M 362.23200,487.08000 L 362.23200,476.49600 C 360.72000,475.63200 359.20800,474.84000 357.69600,474.12000 L 357.69600,486.50400 C 359.20800,486.64800 360.64800,486.86400 362.23200,487.08000 L 362.23200,487.08000 z M 362.23200,429.26400 L 362.23200,427.10400 C 361.58400,427.10400 361.15200,427.60800 361.15200,428.11200 C 361.15200,428.68800 361.58400,429.19200 362.23200,429.26400 L 362.23200,429.26400 z M 362.23200,417.16800 L 362.23200,415.72800 C 361.51200,414.86400 360.86400,413.92800 360.07200,412.84800 C 359.42400,411.98400 358.63200,411.26400 357.69600,410.61600 L 357.69600,411.98400 C 358.92000,412.99200 360.00000,414.21600 360.93600,415.58400 C 361.44000,416.16000 361.80000,416.73600 362.23200,417.16800 L 362.23200,417.16800 z M 362.23200,406.15200 L 362.23200,395.64000 C 361.94400,395.20800 361.65600,394.77600 361.29600,394.34400 C 360.07200,392.83200 359.28000,390.31200 359.78400,388.22400 C 360.28800,385.77600 359.13600,384.26400 357.69600,383.32800 L 357.69600,385.77600 C 358.20000,386.78400 358.12800,388.08000 357.76800,389.52000 L 357.69600,389.66400 L 357.69600,401.83200 C 359.49600,403.12800 360.93600,404.64000 362.23200,406.15200 L 362.23200,406.15200 z M 357.69600,417.60000 L 357.69600,420.04800 C 358.27200,419.90400 358.63200,419.47200 358.63200,418.89600 C 358.63200,418.24800 358.27200,417.74400 357.69600,417.60000 L 357.69600,417.60000 z M 357.69600,423.14400 L 357.69600,425.44800 C 357.84000,425.44800 358.05600,425.52000 358.20000,425.52000 C 358.84800,425.52000 359.42400,425.01600 359.42400,424.29600 C 359.42400,423.64800 358.84800,423.07200 358.20000,423.07200 C 358.05600,423.07200 357.84000,423.07200 357.69600,423.14400 L 357.69600,423.14400 z M 357.69600,430.05600 L 357.69600,432.72000 C 357.84000,432.72000 357.91200,432.72000 358.05600,432.72000 C 358.77600,432.72000 359.42400,432.14400 359.42400,431.35200 C 359.42400,430.56000 358.77600,429.98400 358.05600,429.98400 C 357.91200,429.98400 357.84000,429.98400 357.69600,430.05600 L 357.69600,430.05600 z M 357.69600,437.32800 L 357.69600,438.69600 C 357.91200,438.91200 358.20000,439.12800 358.48800,439.12800 C 359.13600,439.12800 359.64000,438.55200 359.64000,437.97600 C 359.64000,437.47200 359.13600,436.96800 358.48800,436.96800 C 358.20000,436.96800 357.91200,437.11200 357.69600,437.32800 L 357.69600,437.32800 z M 357.69600,442.15200 L 357.69600,445.24800 L 357.76800,445.24800 C 358.56000,445.24800 359.28000,444.52800 359.28000,443.73600 C 359.28000,442.80000 358.56000,442.15200 357.76800,442.15200 L 357.69600,442.15200 z M 357.69600,354.52800 C 356.04000,353.44800 354.24000,352.36800 352.51200,351.36000 L 352.51200,367.92000 C 353.88000,365.61600 355.53600,363.31200 357.26400,360.14400 C 357.40800,360.28800 357.55200,360.36000 357.69600,360.50400 L 357.69600,354.52800 L 357.69600,354.52800 z M 352.51200,532.44000 C 354.24000,531.43200 356.04000,530.35200 357.69600,529.27200 L 357.69600,523.29600 C 356.04000,524.44800 354.31200,525.60000 352.51200,526.68000 L 352.51200,532.44000 L 352.51200,532.44000 z M 357.69600,486.50400 L 357.69600,474.12000 C 355.96800,473.32800 354.24000,472.53600 352.51200,471.81600 L 352.51200,485.64000 C 354.24000,485.92800 355.96800,486.21600 357.69600,486.50400 L 357.69600,486.50400 z M 357.69600,445.24800 L 357.69600,442.15200 C 356.83200,442.15200 356.18400,442.87200 356.18400,443.73600 C 356.18400,444.52800 356.83200,445.17600 357.69600,445.24800 L 357.69600,445.24800 z M 357.69600,438.69600 L 357.69600,437.32800 C 357.55200,437.47200 357.48000,437.76000 357.48000,437.97600 C 357.48000,438.26400 357.55200,438.55200 357.69600,438.69600 L 357.69600,438.69600 z M 357.69600,432.72000 L 357.69600,430.05600 C 357.04800,430.20000 356.61600,430.70400 356.61600,431.35200 C 356.61600,432.07200 357.04800,432.57600 357.69600,432.72000 L 357.69600,432.72000 z M 357.69600,425.44800 L 357.69600,423.14400 C 357.26400,423.36000 356.97600,423.79200 356.97600,424.29600 C 356.97600,424.80000 357.26400,425.23200 357.69600,425.44800 L 357.69600,425.44800 z M 357.69600,420.04800 L 357.69600,417.60000 C 357.62400,417.60000 357.55200,417.60000 357.48000,417.60000 C 356.68800,417.60000 356.18400,418.10400 356.18400,418.89600 C 356.18400,419.54400 356.68800,420.04800 357.48000,420.04800 C 357.55200,420.04800 357.62400,420.04800 357.69600,420.04800 L 357.69600,420.04800 z M 357.69600,411.98400 L 357.69600,410.61600 C 356.83200,409.89600 355.89600,409.24800 354.81600,408.38400 C 354.02400,408.02400 353.23200,407.80800 352.51200,407.52000 L 352.51200,408.38400 C 354.45600,409.32000 356.18400,410.47200 357.69600,411.98400 L 357.69600,411.98400 z M 357.69600,401.83200 L 357.69600,389.66400 C 357.04800,392.25600 355.75200,393.33600 354.31200,395.71200 C 353.23200,397.80000 354.60000,399.74400 356.04000,400.68000 C 356.61600,401.04000 357.19200,401.40000 357.69600,401.83200 L 357.69600,401.83200 z M 357.69600,385.77600 L 357.69600,383.32800 C 357.55200,383.25600 357.33600,383.11200 357.12000,382.96800 C 355.24800,381.96000 353.88000,381.38400 352.51200,380.88000 L 352.51200,382.82400 C 353.59200,383.18400 354.67200,383.61600 355.75200,384.04800 C 356.76000,384.40800 357.40800,384.98400 357.69600,385.77600 L 357.69600,385.77600 z M 352.51200,414.36000 L 352.51200,415.65600 C 352.65600,415.80000 352.87200,415.87200 353.16000,415.87200 C 353.66400,415.87200 354.02400,415.51200 354.02400,415.00800 C 354.02400,414.50400 353.66400,414.07200 353.16000,414.07200 C 352.87200,414.07200 352.65600,414.21600 352.51200,414.36000 L 352.51200,414.36000 z M 352.51200,420.69600 L 352.51200,423.36000 L 352.51200,423.36000 C 353.30400,423.36000 353.88000,422.78400 353.88000,421.99200 C 353.88000,421.20000 353.30400,420.69600 352.51200,420.69600 L 352.51200,420.69600 L 352.51200,420.69600 z M 352.51200,426.31200 L 352.51200,428.40000 C 352.80000,428.68800 353.16000,428.90400 353.59200,428.90400 C 354.38400,428.90400 355.17600,428.18400 355.17600,427.39200 C 355.17600,426.45600 354.38400,425.80800 353.59200,425.80800 C 353.16000,425.80800 352.80000,426.02400 352.51200,426.31200 L 352.51200,426.31200 z M 352.51200,438.12000 L 352.51200,439.99200 L 352.51200,439.99200 C 353.01600,439.99200 353.44800,439.63200 353.44800,439.12800 C 353.44800,438.55200 353.01600,438.12000 352.51200,438.12000 L 352.51200,438.12000 z M 352.51200,351.36000 C 352.08000,351.14400 351.64800,350.85600 351.28800,350.64000 L 351.28800,370.00800 C 351.64800,369.28800 352.08000,368.64000 352.51200,367.92000 L 352.51200,351.36000 L 352.51200,351.36000 z M 351.28800,533.08800 C 351.64800,532.87200 352.08000,532.65600 352.51200,532.44000 L 352.51200,526.68000 C 352.08000,526.89600 351.64800,527.18400 351.28800,527.40000 L 351.28800,533.08800 L 351.28800,533.08800 z M 352.51200,485.64000 L 352.51200,471.81600 C 352.08000,471.67200 351.64800,471.52800 351.28800,471.38400 L 351.28800,485.49600 C 351.64800,485.56800 352.08000,485.56800 352.51200,485.64000 L 352.51200,485.64000 z M 352.51200,439.99200 L 352.51200,438.12000 C 352.00800,438.12000 351.57600,438.55200 351.57600,439.12800 C 351.57600,439.63200 352.00800,439.99200 352.51200,439.99200 L 352.51200,439.99200 z M 352.51200,428.40000 L 352.51200,426.31200 C 352.22400,426.60000 352.08000,426.96000 352.08000,427.39200 C 352.08000,427.75200 352.22400,428.11200 352.51200,428.40000 L 352.51200,428.40000 z M 352.51200,423.36000 L 352.51200,420.69600 C 352.00800,420.69600 351.50400,420.91200 351.28800,421.34400 L 351.28800,422.56800 C 351.50400,423.07200 352.00800,423.36000 352.51200,423.36000 L 352.51200,423.36000 z M 352.51200,415.65600 L 352.51200,414.36000 C 352.36800,414.50400 352.22400,414.72000 352.22400,415.00800 C 352.22400,415.22400 352.36800,415.51200 352.51200,415.65600 L 352.51200,415.65600 z M 352.51200,408.38400 L 352.51200,407.52000 L 351.28800,407.08800 L 351.28800,407.80800 C 351.72000,408.02400 352.08000,408.16800 352.51200,408.38400 L 352.51200,408.38400 z M 352.51200,382.82400 L 352.51200,380.88000 C 352.08000,380.73600 351.72000,380.59200 351.28800,380.44800 L 351.28800,382.39200 C 351.64800,382.53600 352.08000,382.68000 352.51200,382.82400 L 352.51200,382.82400 z M 351.28800,431.06400 L 351.28800,433.22400 C 351.86400,433.22400 352.29600,432.72000 352.29600,432.14400 C 352.29600,431.56800 351.86400,431.06400 351.28800,431.06400 z M 351.28800,350.64000 C 343.58400,346.39200 335.30400,343.08000 326.59200,340.92000 L 326.59200,368.06400 C 327.96000,370.22400 328.68000,371.66400 330.33600,373.89600 C 331.70400,375.76800 332.78400,378.43200 336.31200,378.79200 C 342.07200,379.36800 346.82400,380.80800 351.28800,382.39200 L 351.28800,380.44800 C 350.20800,380.08800 349.12800,379.72800 347.76000,379.22400 C 348.62400,375.33600 349.84800,372.52800 351.28800,370.00800 L 351.28800,350.64000 L 351.28800,350.64000 z M 326.59200,542.88000 C 335.30400,540.72000 343.58400,537.40800 351.28800,533.08800 L 351.28800,527.40000 C 343.65600,531.93600 335.37600,535.39200 326.59200,537.76800 L 326.59200,542.88000 L 326.59200,542.88000 z M 351.28800,485.49600 L 351.28800,471.38400 C 344.37600,468.72000 337.03200,466.92000 327.67200,464.47200 C 331.63200,456.76800 329.90400,450.07200 326.59200,447.76800 L 326.59200,453.09600 C 326.80800,453.52800 326.88000,453.96000 326.95200,454.46400 C 327.16800,456.48000 327.24000,458.20800 326.59200,459.72000 L 326.59200,479.16000 C 326.95200,479.30400 327.31200,479.44800 327.67200,479.52000 C 337.03200,482.54400 344.01600,484.20000 351.28800,485.49600 L 351.28800,485.49600 z M 351.28800,433.22400 L 351.28800,431.06400 C 350.64000,431.06400 350.20800,431.56800 350.20800,432.14400 C 350.20800,432.72000 350.64000,433.22400 351.28800,433.22400 L 351.28800,433.22400 z M 351.28800,422.56800 L 351.28800,421.34400 C 351.14400,421.56000 351.14400,421.77600 351.14400,421.99200 C 351.14400,422.20800 351.14400,422.42400 351.28800,422.56800 L 351.28800,422.56800 z M 351.28800,407.80800 C 349.20000,406.94400 346.96800,406.36800 344.44800,406.00800 C 344.66400,410.40000 345.24000,419.04000 347.61600,442.44000 L 346.82400,442.58400 C 345.31200,431.49600 344.66400,425.95200 343.15200,415.00800 C 337.68000,409.89600 335.01600,407.37600 329.54400,402.40800 C 328.53600,403.77600 327.52800,405.21600 326.59200,406.51200 L 326.59200,396.07200 L 329.25600,399.67200 C 330.48000,401.40000 330.98400,402.33600 332.49600,403.70400 C 336.16800,407.23200 337.96800,409.03200 341.71200,412.56000 C 342.36000,413.13600 343.80000,412.48800 343.72800,411.55200 C 343.51200,409.46400 343.36800,408.38400 343.15200,406.22400 C 343.00800,405.28800 341.92800,405.64800 341.13600,405.28800 C 340.56000,405.00000 341.13600,403.48800 341.71200,403.70400 C 345.60000,405.14400 348.04800,406.00800 351.28800,407.08800 L 351.28800,407.80800 L 351.28800,407.80800 z M 326.59200,486.36000 L 326.59200,489.81600 C 332.13600,490.03200 335.95200,490.17600 342.43200,490.32000 C 336.88800,488.88000 331.63200,487.58400 326.59200,486.36000 z M 326.59200,340.92000 C 318.45600,338.83200 309.88800,337.68000 301.03200,337.68000 C 296.28000,337.68000 291.45600,338.04000 286.77600,338.68800 L 286.77600,454.53600 C 287.35200,454.82400 287.85600,455.32800 288.21600,455.90400 C 288.86400,456.76800 289.58400,458.64000 288.36000,458.64000 C 287.71200,458.64000 287.20800,458.42400 286.77600,457.99200 L 286.77600,472.46400 C 299.30400,472.60800 311.32800,474.40800 326.59200,479.16000 L 326.59200,459.72000 C 326.30400,460.51200 325.80000,461.23200 325.08000,462.02400 C 323.56800,459.86400 322.05600,457.20000 319.82400,457.20000 C 319.68000,455.04000 319.75200,453.09600 320.83200,450.86400 C 321.76800,448.92000 325.44000,450.28800 326.59200,453.09600 L 326.59200,447.76800 C 323.92800,445.89600 320.25600,446.90400 317.52000,452.44800 C 316.15200,455.47200 316.36800,458.20800 318.02400,460.65600 C 320.04000,463.53600 318.24000,466.20000 316.80000,468.50400 C 316.00800,469.72800 314.42400,470.80800 312.62400,469.65600 C 306.43200,466.05600 300.02400,465.76800 297.28800,470.01600 C 295.99200,472.17600 292.89600,472.53600 292.39200,469.08000 C 291.74400,465.26400 292.10400,462.31200 291.09600,458.92800 C 290.52000,456.76800 290.95200,455.18400 292.96800,456.19200 C 294.12000,456.40800 294.62400,456.55200 295.77600,456.76800 C 294.98400,455.18400 294.98400,453.88800 295.27200,452.30400 C 300.31200,452.59200 303.91200,452.73600 308.95200,452.73600 C 306.93600,449.06400 302.61600,446.76000 301.60800,450.28800 C 298.08000,450.64800 295.77600,450.43200 292.96800,451.22400 C 291.67200,450.00000 290.95200,449.42400 289.94400,448.34400 C 288.50400,446.18400 294.69600,446.47200 298.87200,446.61600 C 299.88000,443.37600 291.09600,444.31200 287.78400,445.53600 C 285.48000,439.70400 288.93600,433.65600 297.28800,434.01600 C 298.00800,430.84800 298.36800,429.19200 299.08800,425.80800 C 299.80800,422.56800 303.84000,422.85600 304.05600,426.60000 C 304.12800,429.19200 304.20000,430.48800 304.34400,433.08000 C 304.41600,435.09600 304.92000,436.53600 306.14400,437.40000 C 309.09600,439.41600 309.24000,446.76000 312.33600,446.90400 C 310.17600,440.13600 308.95200,436.46400 306.43200,429.12000 C 314.28000,423.00000 319.75200,416.01600 326.59200,406.51200 L 326.59200,396.07200 C 324.64800,393.40800 323.06400,391.24800 320.61600,387.93600 C 320.18400,380.66400 320.61600,375.76800 321.40800,368.20800 C 321.69600,364.89600 324.21600,364.24800 326.23200,367.41600 C 326.37600,367.63200 326.44800,367.84800 326.59200,368.06400 L 326.59200,340.92000 L 326.59200,340.92000 z M 286.77600,545.11200 C 291.45600,545.76000 296.28000,546.12000 301.03200,546.12000 C 309.88800,546.12000 318.45600,544.96800 326.59200,542.88000 L 326.59200,537.76800 C 321.04800,539.20800 315.28800,540.21600 309.38400,540.72000 C 315.57600,522.07200 318.09600,510.40800 322.48800,489.67200 L 326.59200,489.81600 L 326.59200,486.36000 C 313.48800,483.33600 301.53600,481.32000 286.77600,480.96000 L 286.77600,545.11200 z M 286.77600,338.68800 C 286.05600,338.83200 285.33600,338.90400 284.61600,339.04800 L 284.61600,454.10400 C 284.68800,454.03200 284.83200,454.03200 284.97600,454.03200 C 285.62400,454.03200 286.20000,454.17600 286.77600,454.53600 L 286.77600,338.68800 L 286.77600,338.68800 z M 284.61600,544.75200 C 285.33600,544.89600 286.05600,544.96800 286.77600,545.11200 L 286.77600,480.96000 C 286.05600,480.96000 285.33600,480.96000 284.61600,480.88800 L 284.61600,544.75200 L 284.61600,544.75200 z M 286.77600,472.46400 L 286.77600,457.99200 C 286.41600,457.63200 286.05600,457.12800 285.62400,456.48000 C 285.26400,456.04800 284.83200,455.40000 284.61600,454.82400 L 284.61600,464.54400 C 284.61600,464.61600 284.68800,464.61600 284.68800,464.61600 L 284.61600,464.68800 L 284.61600,472.46400 C 285.33600,472.46400 286.05600,472.46400 286.77600,472.46400 z M 284.61600,339.04800 C 282.88800,339.33600 281.16000,339.62400 279.43200,339.98400 L 279.43200,456.48000 C 280.94400,455.90400 281.95200,455.90400 283.03200,458.35200 C 284.04000,460.80000 282.02400,463.53600 284.61600,464.54400 L 284.61600,454.82400 C 284.47200,454.53600 284.47200,454.24800 284.61600,454.10400 L 284.61600,339.04800 L 284.61600,339.04800 z M 279.43200,543.81600 C 281.16000,544.17600 282.88800,544.46400 284.61600,544.75200 L 284.61600,480.88800 C 282.88800,480.88800 281.16000,480.88800 279.43200,480.88800 L 279.43200,543.81600 L 279.43200,543.81600 z M 284.61600,472.46400 L 284.61600,464.68800 C 282.74400,465.91200 282.16800,467.42400 279.93600,467.71200 C 279.79200,467.78400 279.57600,467.78400 279.43200,467.78400 L 279.43200,472.53600 C 281.16000,472.46400 282.88800,472.46400 284.61600,472.46400 z M 279.43200,339.98400 C 278.28000,340.27200 277.12800,340.48800 276.04800,340.77600 L 276.04800,436.17600 C 276.91200,437.04000 277.41600,438.19200 277.63200,439.27200 C 278.35200,443.16000 277.70400,446.25600 276.04800,449.20800 L 276.04800,459.21600 C 276.76800,458.06400 277.63200,457.27200 279.14400,456.62400 C 279.21600,456.55200 279.28800,456.55200 279.43200,456.48000 L 279.43200,339.98400 L 279.43200,339.98400 z M 276.04800,543.02400 C 277.12800,543.31200 278.28000,543.52800 279.43200,543.81600 L 279.43200,480.88800 C 278.28000,480.88800 277.20000,480.96000 276.04800,480.96000 L 276.04800,543.02400 L 276.04800,543.02400 z M 279.43200,472.53600 L 279.43200,467.78400 C 278.06400,467.92800 276.91200,467.64000 276.04800,467.20800 L 276.04800,472.68000 C 277.12800,472.60800 278.28000,472.60800 279.43200,472.53600 z M 276.04800,340.77600 C 272.37600,341.71200 268.84800,342.79200 265.39200,344.01600 L 265.39200,436.89600 C 267.62400,437.54400 269.78400,436.75200 271.44000,435.81600 C 273.38400,434.73600 274.96800,435.16800 276.04800,436.17600 L 276.04800,340.77600 L 276.04800,340.77600 z M 265.39200,539.71200 C 268.84800,541.00800 272.37600,542.08800 276.04800,543.02400 L 276.04800,480.96000 C 274.53600,480.96000 273.02400,481.03200 271.44000,481.10400 C 269.13600,480.31200 267.19200,479.59200 265.39200,479.01600 L 265.39200,483.84000 C 267.04800,484.12800 268.77600,484.41600 270.50400,484.77600 C 269.92800,505.87200 271.58400,517.75200 274.39200,537.33600 C 271.36800,536.47200 268.34400,535.46400 265.39200,534.38400 L 265.39200,539.71200 L 265.39200,539.71200 z M 276.04800,472.68000 L 276.04800,467.20800 C 274.10400,466.12800 273.45600,463.82400 275.04000,460.94400 C 275.32800,460.29600 275.68800,459.72000 276.04800,459.21600 L 276.04800,449.20800 C 275.54400,449.92800 275.04000,450.64800 274.46400,451.44000 C 272.23200,443.23200 268.27200,442.00800 265.39200,443.88000 L 265.39200,446.32800 C 266.47200,445.17600 268.12800,444.88800 269.28000,445.96800 C 271.15200,447.84000 271.72800,449.85600 272.37600,452.44800 C 270.72000,453.60000 269.28000,455.18400 267.40800,456.19200 C 266.54400,455.40000 265.89600,454.60800 265.39200,453.74400 L 265.39200,457.56000 C 265.82400,457.92000 266.32800,458.28000 266.83200,458.64000 C 266.61600,460.58400 266.40000,461.52000 266.18400,463.53600 L 265.39200,463.60800 L 265.39200,473.47200 C 269.13600,473.11200 272.59200,472.89600 276.04800,472.68000 z M 265.39200,344.01600 C 256.24800,347.40000 247.68000,352.08000 239.83200,357.76800 L 239.83200,419.04000 L 240.69600,419.90400 C 246.24000,425.52000 251.20800,424.94400 255.45600,428.76000 C 259.12800,432.14400 260.13600,433.29600 263.44800,435.81600 C 264.09600,436.32000 264.74400,436.68000 265.39200,436.89600 L 265.39200,344.01600 L 265.39200,344.01600 z M 239.83200,526.03200 C 247.68000,531.72000 256.24800,536.40000 265.39200,539.71200 L 265.39200,534.38400 C 256.17600,530.78400 247.53600,525.81600 239.83200,519.76800 L 239.83200,526.03200 L 239.83200,526.03200 z M 265.39200,483.84000 L 265.39200,479.01600 C 261.43200,477.57600 258.04800,476.42400 252.93600,474.69600 C 257.32800,474.19200 261.50400,473.83200 265.39200,473.47200 L 265.39200,463.60800 C 255.88800,464.11200 247.82400,464.25600 239.83200,464.97600 L 239.83200,478.80000 C 247.89600,480.67200 255.24000,481.96800 265.39200,483.84000 L 265.39200,483.84000 z M 265.39200,457.56000 L 265.39200,453.74400 C 263.95200,451.36800 264.02400,448.99200 264.88800,447.26400 C 265.03200,446.90400 265.17600,446.61600 265.39200,446.32800 L 265.39200,443.88000 C 262.00800,446.11200 260.28000,453.02400 265.39200,457.56000 z M 239.83200,357.76800 C 213.84000,376.77600 196.92000,407.44800 196.92000,441.86400 C 196.92000,476.35200 213.84000,507.02400 239.83200,526.03200 L 239.83200,519.76800 C 216.72000,501.55200 201.81600,473.32800 201.81600,441.86400 C 201.81600,423.93600 206.64000,407.16000 215.20800,392.61600 C 224.78400,402.91200 229.89600,408.81600 239.83200,419.04000 L 239.83200,357.76800 L 239.83200,357.76800 z M 239.83200,478.80000 C 235.22400,477.72000 230.32800,476.49600 224.49600,474.76800 C 216.50400,472.46400 215.49600,469.51200 222.19200,467.85600 C 228.31200,466.27200 234.07200,465.48000 239.83200,464.97600 L 239.83200,478.80000 z "/>
      <path style="fill:none;stroke:#000000;stroke-width:0.21600001" id="path25" d="M 300.81600,334.00800 C 360.43200,334.00800 409.03200,382.60800 409.03200,442.08000 C 409.03200,501.69600 360.43200,550.29600 300.81600,550.29600 C 241.34400,550.29600 192.74400,501.69600 192.74400,442.08000 C 192.74400,382.60800 241.34400,334.00800 300.81600,334.00800 z "/>
    </g>
    <g transform="matrix(1.000000,0.000000,0.000000,-1.000000,0.000000,792.0000)" id="g27">
      <path style="fill:#0032fc;fill-rule:evenodd" id="path29" d="M 479.52000,364.03200 C 478.72800,361.44000 478.22400,360.14400 477.43200,357.48000 C 479.59200,357.40800 481.46400,358.05600 483.26400,357.76800 C 483.76800,352.29600 483.40800,347.47200 482.83200,341.20800 C 486.07200,341.28000 487.65600,341.28000 490.89600,341.28000 C 490.53600,347.32800 490.46400,350.71200 490.89600,357.26400 C 492.55200,357.19200 493.48800,357.12000 495.21600,356.97600 C 495.43200,359.49600 496.44000,361.87200 496.58400,363.60000 C 490.82400,363.60000 485.06400,363.38400 479.52000,364.03200 L 479.52000,364.03200 z M 428.76000,337.24800 L 428.76000,343.22400 C 428.90400,340.99200 429.26400,339.91200 429.69600,337.68000 C 429.33600,337.53600 429.04800,337.39200 428.76000,337.24800 L 428.76000,337.24800 z M 428.76000,351.72000 C 430.92000,345.02400 432.28800,340.84800 434.73600,333.28800 C 440.56800,335.16000 443.52000,336.09600 449.35200,338.04000 C 449.06400,339.98400 449.64000,342.50400 448.99200,343.72800 C 445.17600,342.14400 443.16000,341.64000 439.05600,340.41600 C 438.48000,341.49600 438.26400,342.36000 438.26400,343.29600 C 441.79200,344.44800 443.52000,345.02400 447.04800,346.17600 C 446.76000,348.04800 445.10400,349.41600 443.95200,351.14400 C 440.85600,350.20800 439.34400,349.70400 436.32000,348.76800 C 436.03200,349.70400 435.81600,350.13600 435.52800,351.00000 C 438.76800,352.29600 442.65600,353.30400 445.75200,353.73600 C 444.74400,356.25600 443.95200,357.62400 442.29600,359.78400 C 436.82400,357.84000 433.94400,356.83200 428.76000,354.96000 L 428.76000,351.72000 L 428.76000,351.72000 z M 467.28000,364.03200 C 470.23200,363.60000 471.74400,363.31200 474.62400,362.80800 C 473.68800,361.72800 473.18400,361.08000 472.17600,360.00000 C 470.88000,357.69600 470.66400,355.89600 471.52800,354.38400 C 472.24800,353.16000 472.68000,352.51200 473.61600,351.14400 C 475.20000,348.62400 474.84000,346.03200 473.54400,343.80000 C 472.75200,342.36000 472.03200,341.28000 470.52000,340.27200 C 467.56800,340.84800 465.98400,341.13600 463.39200,342.21600 C 463.96800,343.00800 464.54400,343.65600 465.26400,344.52000 C 466.84800,346.82400 466.48800,349.41600 465.04800,351.00000 C 464.32800,352.00800 463.96800,352.58400 463.24800,353.59200 C 461.80800,355.75200 462.52800,357.91200 463.32000,359.35200 C 464.61600,361.51200 465.48000,362.73600 467.28000,364.03200 L 467.28000,364.03200 z M 452.95200,338.76000 C 455.47200,338.32800 459.07200,339.84000 460.94400,340.12800 C 459.07200,345.24000 458.71200,357.40800 457.77600,362.16000 C 454.89600,361.72800 453.09600,361.65600 450.00000,360.79200 C 451.72800,352.29600 452.16000,347.11200 452.95200,338.76000 L 452.95200,338.76000 z M 517.24800,363.67200 C 523.36800,363.81600 526.46400,363.96000 532.65600,364.10400 C 533.52000,361.58400 533.88000,360.14400 534.09600,357.33600 C 531.00000,357.84000 526.96800,358.12800 523.51200,357.84000 C 523.58400,356.90400 523.58400,356.47200 523.58400,355.46400 C 526.75200,355.46400 528.33600,355.46400 531.50400,355.39200 C 532.08000,353.37600 533.30400,351.57600 532.94400,349.70400 C 529.27200,349.70400 527.40000,349.70400 523.72800,349.70400 C 523.44000,348.76800 523.36800,347.83200 523.65600,346.75200 C 527.90400,346.68000 529.92000,346.46400 534.02400,346.82400 C 534.31200,345.45600 533.08800,343.22400 532.72800,341.28000 C 526.53600,341.28000 523.44000,341.28000 517.32000,341.20800 C 517.24800,350.20800 517.24800,354.67200 517.24800,363.67200 L 517.24800,363.67200 z M 498.52800,363.67200 C 504.64800,363.81600 507.74400,363.96000 513.93600,364.10400 C 514.87200,361.58400 515.16000,360.14400 515.37600,357.33600 C 512.28000,357.84000 508.24800,358.12800 504.79200,357.84000 C 504.86400,356.90400 504.86400,356.47200 504.86400,355.46400 C 508.03200,355.46400 509.61600,355.46400 512.78400,355.39200 C 513.36000,353.37600 514.58400,351.57600 514.22400,349.70400 C 510.55200,349.70400 508.75200,349.70400 505.00800,349.70400 C 504.72000,348.76800 504.64800,347.83200 504.86400,346.75200 C 509.11200,346.68000 511.27200,346.46400 515.30400,346.82400 C 515.52000,345.45600 514.29600,343.22400 513.93600,341.28000 C 507.81600,341.28000 504.72000,341.28000 498.60000,341.20800 C 498.52800,350.20800 498.52800,354.67200 498.52800,363.67200 z M 428.76000,354.96000 L 428.76000,351.72000 L 427.82400,354.60000 L 428.76000,354.96000 L 428.76000,354.96000 z M 428.76000,343.22400 L 428.76000,337.24800 C 425.59200,335.88000 423.86400,335.23200 420.48000,333.57600 C 420.40800,336.09600 420.40800,337.39200 420.40800,339.91200 C 423.64800,341.56800 425.44800,341.92800 428.76000,343.22400 L 428.76000,343.22400 z M 399.09600,314.64000 L 399.09600,320.83200 C 400.10400,319.60800 401.18400,318.38400 402.33600,317.23200 C 401.04000,316.22400 400.03200,315.43200 399.09600,314.64000 L 399.09600,314.64000 z M 399.09600,333.79200 C 401.54400,329.32800 403.56000,325.65600 406.65600,320.11200 C 411.98400,323.06400 414.72000,324.57600 420.12000,327.52800 C 419.47200,329.40000 419.47200,331.92000 418.60800,333.00000 C 415.22400,330.76800 413.28000,329.90400 409.53600,327.96000 C 408.74400,328.82400 408.45600,329.61600 408.24000,330.55200 C 411.40800,332.35200 413.06400,333.21600 416.23200,335.01600 C 415.65600,336.81600 413.78400,337.82400 412.34400,339.33600 C 409.46400,337.82400 408.09600,337.03200 405.28800,335.59200 C 404.85600,336.38400 404.56800,336.81600 404.06400,337.68000 C 407.01600,339.48000 410.68800,341.20800 413.64000,342.28800 C 412.05600,344.52000 411.04800,345.81600 409.10400,347.47200 C 405.00000,345.09600 402.48000,343.65600 399.09600,341.64000 L 399.09600,333.79200 z M 399.09600,341.64000 L 399.09600,333.79200 C 398.08800,335.52000 397.00800,337.46400 395.78400,339.69600 C 397.00800,340.41600 398.08800,341.06400 399.09600,341.64000 L 399.09600,341.64000 z M 399.09600,320.83200 C 396.64800,323.78400 394.56000,326.80800 392.68800,329.90400 C 393.76800,330.91200 394.70400,331.41600 396.21600,332.13600 C 395.06400,334.65600 394.56000,336.02400 393.48000,338.68800 C 388.44000,334.65600 384.76800,331.48800 380.30400,328.89600 L 380.30400,326.08800 C 380.66400,324.86400 381.16800,323.78400 381.88800,322.12800 C 383.61600,323.64000 384.40800,324.36000 386.13600,325.87200 C 390.81600,321.12000 392.25600,317.44800 395.92800,312.19200 C 397.15200,313.20000 398.16000,313.92000 399.09600,314.64000 L 399.09600,320.83200 L 399.09600,320.83200 z M 380.30400,304.56000 L 380.30400,310.53600 C 380.44800,310.75200 380.59200,310.89600 380.80800,311.11200 C 380.59200,311.18400 380.44800,311.40000 380.30400,311.54400 L 380.30400,319.60800 C 384.69600,316.94400 388.44000,314.56800 393.55200,311.11200 C 391.24800,309.24000 390.09600,308.30400 387.93600,306.64800 C 386.71200,306.86400 385.99200,307.51200 384.84000,308.16000 C 383.32800,306.72000 381.60000,305.64000 380.30400,304.56000 z M 380.30400,328.89600 L 380.30400,326.08800 C 380.08800,326.80800 379.94400,327.60000 379.80000,328.60800 C 379.94400,328.75200 380.08800,328.82400 380.30400,328.89600 L 380.30400,328.89600 z M 380.30400,319.60800 L 380.30400,311.54400 C 379.29600,312.40800 377.92800,313.48800 376.12800,313.70400 C 376.34400,311.76000 376.70400,310.24800 377.56800,308.59200 C 378.79200,309.31200 379.51200,309.81600 380.30400,310.53600 L 380.30400,304.56000 C 379.72800,304.12800 379.29600,303.69600 378.93600,303.26400 C 379.22400,302.18400 379.87200,301.39200 379.87200,300.31200 C 377.64000,298.65600 376.56000,297.86400 374.32800,296.20800 C 373.03200,299.01600 371.52000,304.56000 369.79200,310.75200 L 369.79200,320.97600 C 370.87200,321.84000 371.80800,322.63200 373.24800,323.78400 C 375.91200,322.20000 378.14400,320.83200 380.30400,319.60800 L 380.30400,319.60800 z M 369.79200,293.25600 C 370.58400,293.61600 371.30400,293.97600 372.16800,294.48000 C 371.88000,295.05600 371.01600,296.13600 369.79200,297.64800 L 369.79200,293.25600 z M 369.79200,320.97600 L 369.79200,310.75200 C 369.00000,313.41600 368.20800,316.29600 367.34400,319.10400 C 368.28000,319.82400 369.07200,320.40000 369.79200,320.97600 L 369.79200,320.97600 z M 369.79200,297.64800 C 366.55200,301.39200 360.93600,307.36800 356.40000,312.55200 C 354.81600,311.76000 354.02400,311.40000 352.51200,310.68000 C 353.16000,306.28800 353.16000,304.05600 353.23200,299.95200 C 350.06400,303.04800 348.69600,304.63200 345.88800,307.72800 C 344.16000,306.93600 343.22400,306.57600 341.56800,305.92800 C 343.29600,296.85600 343.87200,292.53600 345.31200,283.39200 C 347.97600,284.47200 349.27200,284.97600 351.86400,286.05600 C 351.43200,289.08000 351.21600,290.59200 350.78400,293.54400 C 353.08800,291.67200 354.31200,289.87200 356.04000,287.64000 C 357.48000,287.49600 359.64000,288.79200 360.28800,289.72800 C 360.21600,293.18400 360.21600,294.91200 360.14400,298.36800 C 362.88000,295.84800 363.52800,293.54400 364.89600,291.67200 C 366.84000,292.10400 368.35200,292.60800 369.79200,293.25600 L 369.79200,297.64800 L 369.79200,297.64800 z M 297.28800,276.19200 L 297.28800,283.53600 C 297.57600,283.68000 297.72000,283.89600 298.00800,284.11200 C 298.72800,284.68800 299.01600,285.04800 299.66400,285.76800 C 300.45600,286.77600 300.52800,288.72000 299.66400,289.94400 C 298.80000,290.95200 298.15200,291.52800 297.28800,292.10400 L 297.28800,298.80000 C 299.73600,298.44000 301.39200,297.57600 302.54400,296.49600 C 303.55200,295.48800 304.12800,294.91200 305.06400,293.90400 C 309.74400,288.36000 307.22400,283.68000 305.35200,281.23200 C 304.48800,280.00800 303.91200,279.50400 302.83200,278.56800 C 300.81600,276.98400 299.30400,276.40800 297.28800,276.19200 L 297.28800,276.19200 z M 308.66400,298.51200 C 309.88800,289.65600 310.53600,285.19200 311.76000,276.33600 C 317.88000,277.20000 320.90400,277.63200 327.02400,278.49600 C 327.09600,280.44000 328.03200,282.81600 327.60000,284.18400 C 323.64000,283.17600 321.48000,283.17600 317.30400,282.60000 C 316.87200,283.68000 316.87200,284.61600 317.01600,285.55200 C 320.68800,286.12800 322.48800,286.34400 326.16000,286.77600 C 326.23200,288.72000 324.72000,290.37600 324.00000,292.24800 C 320.76000,291.88800 319.17600,291.67200 316.08000,291.31200 C 315.93600,292.24800 315.86400,292.68000 315.64800,293.68800 C 319.10400,294.33600 323.06400,294.62400 326.23200,294.55200 C 325.65600,297.21600 325.08000,298.72800 323.85600,301.03200 C 317.80800,300.02400 314.71200,299.52000 308.66400,298.51200 z M 297.28800,298.80000 L 297.28800,292.10400 L 297.14400,292.24800 C 296.42400,292.68000 295.70400,292.89600 294.69600,292.75200 C 294.26400,290.30400 294.33600,286.77600 294.26400,282.96000 C 294.84000,282.74400 296.13600,282.88800 297.28800,283.53600 L 297.28800,276.19200 C 296.71200,276.12000 296.06400,276.12000 295.34400,276.04800 C 291.96000,275.97600 290.30400,276.40800 286.99200,276.62400 C 287.20800,285.69600 287.42400,290.23200 287.64000,299.30400 C 290.66400,299.16000 292.10400,299.16000 295.12800,299.01600 C 295.92000,298.94400 296.64000,298.87200 297.28800,298.80000 L 297.28800,298.80000 z M 245.88000,287.35200 L 245.88000,295.20000 C 248.04000,299.88000 249.48000,303.91200 251.49600,309.67200 C 254.37600,308.30400 255.81600,307.58400 258.62400,306.21600 C 256.32000,300.45600 254.88000,296.85600 252.28800,291.31200 C 254.44800,289.87200 256.60800,289.51200 259.56000,288.72000 C 257.90400,286.56000 255.96000,285.04800 254.73600,283.17600 C 250.84800,285.19200 248.68800,286.12800 245.88000,287.35200 L 245.88000,287.35200 z M 245.88000,304.92000 C 246.31200,304.63200 246.74400,304.27200 247.17600,303.98400 C 248.32800,306.50400 248.76000,307.94400 249.12000,310.60800 C 247.96800,311.25600 246.88800,311.76000 245.88000,312.26400 L 245.88000,304.92000 L 245.88000,304.92000 z M 259.92000,282.02400 C 262.58400,281.52000 263.80800,281.23200 266.61600,280.44000 C 267.62400,284.18400 267.98400,286.12800 268.92000,290.01600 C 271.51200,286.77600 273.09600,282.96000 275.18400,278.35200 C 277.48800,277.84800 278.64000,277.63200 280.94400,277.05600 C 282.52800,286.05600 283.89600,290.88000 286.12800,299.08800 C 283.17600,299.44800 281.73600,299.66400 278.85600,299.95200 C 278.35200,296.78400 278.13600,293.04000 276.76800,290.59200 C 273.96000,295.05600 272.23200,297.72000 270.21600,302.61600 C 268.05600,303.26400 266.97600,303.55200 264.81600,304.12800 C 263.08800,295.48800 262.22400,290.52000 259.92000,282.02400 z M 245.88000,312.26400 L 245.88000,304.92000 C 243.57600,306.57600 240.76800,308.23200 238.17600,309.45600 C 237.74400,308.59200 237.52800,308.16000 237.09600,307.29600 C 239.83200,305.78400 241.27200,304.99200 244.00800,303.48000 C 243.57600,301.39200 243.72000,299.23200 242.56800,297.79200 C 239.32800,299.52000 237.74400,300.38400 234.50400,302.11200 C 233.78400,301.46400 233.28000,300.67200 232.92000,299.59200 C 236.66400,297.50400 238.39200,296.35200 242.13600,294.76800 C 241.63200,293.40000 239.61600,292.03200 238.39200,290.52000 L 229.32000,295.34400 L 229.32000,306.14400 C 231.19200,309.67200 232.92000,312.91200 235.44000,317.59200 C 239.68800,315.36000 242.28000,314.06400 245.88000,312.26400 L 245.88000,312.26400 z M 245.88000,295.20000 C 244.94400,293.25600 243.86400,291.16800 242.56800,288.79200 C 243.79200,288.21600 244.87200,287.78400 245.88000,287.35200 L 245.88000,295.20000 L 245.88000,295.20000 z M 229.32000,315.00000 C 230.83200,315.21600 232.34400,315.50400 233.85600,315.79200 C 232.20000,318.45600 231.26400,320.04000 229.96800,322.27200 L 229.32000,322.12800 L 229.32000,315.00000 z M 229.32000,322.12800 L 229.32000,315.00000 C 226.72800,314.56800 223.99200,314.13600 220.89600,313.77600 C 221.83200,309.38400 222.12000,306.79200 223.20000,302.25600 C 220.53600,302.97600 218.95200,303.33600 216.00000,303.98400 C 215.85600,307.51200 215.64000,309.88800 214.27200,313.99200 C 212.47200,312.12000 211.60800,311.18400 210.09600,309.24000 C 209.59200,309.67200 209.16000,309.96000 208.72800,310.32000 L 208.72800,318.52800 C 212.04000,322.63200 214.56000,325.94400 218.30400,331.20000 C 220.53600,329.32800 221.61600,328.39200 223.84800,326.59200 C 222.19200,324.36000 221.32800,323.20800 219.60000,320.97600 C 223.34400,320.61600 225.72000,321.26400 229.32000,322.12800 L 229.32000,322.12800 z M 229.32000,306.14400 C 227.95200,303.69600 226.51200,301.03200 224.78400,297.79200 L 229.32000,295.34400 L 229.32000,306.14400 L 229.32000,306.14400 z M 208.72800,330.33600 C 210.09600,330.19200 211.10400,329.97600 212.76000,329.68800 C 212.40000,332.42400 212.40000,333.79200 211.89600,336.38400 C 211.17600,336.60000 210.02400,336.88800 208.72800,337.03200 L 208.72800,330.33600 z M 208.72800,337.03200 L 208.72800,330.33600 C 208.15200,330.40800 207.57600,330.48000 206.85600,330.48000 C 203.04000,330.40800 200.88000,327.88800 202.39200,324.14400 C 203.40000,321.48000 204.62400,320.18400 206.06400,318.88800 C 203.68800,317.88000 202.53600,317.30400 200.44800,316.00800 C 199.22400,317.01600 197.78400,318.88800 196.63200,320.97600 L 196.63200,333.64800 C 197.78400,334.94400 199.51200,336.02400 202.03200,336.81600 C 204.12000,337.53600 206.64000,337.39200 208.72800,337.03200 L 208.72800,337.03200 z M 208.72800,318.52800 C 207.50400,317.01600 206.20800,315.43200 204.62400,313.56000 C 206.28000,312.19200 207.28800,311.40000 208.72800,310.32000 L 208.72800,318.52800 L 208.72800,318.52800 z M 196.63200,340.27200 L 196.63200,344.88000 C 197.28000,344.59200 197.85600,344.23200 198.57600,343.87200 C 198.14400,342.86400 197.42400,341.64000 196.63200,340.27200 z M 196.63200,344.88000 L 196.63200,340.27200 C 193.82400,335.23200 189.43200,328.17600 188.28000,324.14400 C 187.05600,324.72000 184.60800,325.44000 182.73600,326.44800 L 182.73600,330.55200 C 185.97600,336.24000 188.49600,340.48800 191.52000,347.25600 C 193.60800,346.46400 195.04800,345.74400 196.63200,344.88000 L 196.63200,344.88000 z M 196.63200,333.64800 C 194.40000,331.12800 194.32800,327.81600 195.26400,324.43200 C 195.62400,323.20800 196.05600,322.05600 196.63200,320.97600 L 196.63200,333.64800 L 196.63200,333.64800 z M 182.73600,340.99200 C 183.74400,342.07200 184.53600,343.80000 184.39200,346.68000 C 184.32000,347.54400 183.88800,348.91200 182.73600,350.28000 L 182.73600,340.99200 z M 182.73600,350.28000 L 182.73600,340.99200 C 182.16000,340.41600 181.58400,339.98400 180.93600,339.69600 C 179.64000,338.97600 178.70400,338.97600 177.33600,338.32800 C 177.91200,334.51200 179.13600,330.84000 178.70400,328.60800 C 177.04800,329.32800 175.96800,329.83200 174.60000,330.40800 L 174.60000,343.80000 C 175.03200,343.87200 175.39200,344.01600 175.75200,344.23200 C 177.55200,345.16800 177.98400,346.46400 176.83200,348.12000 C 176.32800,348.84000 175.53600,349.34400 174.60000,349.56000 L 174.60000,354.45600 C 175.89600,354.09600 177.19200,353.66400 178.70400,353.01600 C 180.50400,352.29600 181.80000,351.28800 182.73600,350.28000 L 182.73600,350.28000 z M 182.73600,330.55200 C 182.16000,329.61600 181.58400,328.68000 181.00800,327.67200 C 181.51200,327.16800 182.08800,326.80800 182.73600,326.44800 L 182.73600,330.55200 z M 174.60000,354.45600 L 174.60000,349.56000 C 174.38400,349.63200 174.16800,349.63200 173.88000,349.70400 C 173.44800,348.33600 171.79200,345.81600 171.79200,344.52000 C 172.72800,344.01600 173.66400,343.72800 174.60000,343.80000 L 174.60000,330.40800 C 174.09600,330.62400 173.52000,330.91200 172.80000,331.20000 C 171.86400,334.44000 171.86400,337.68000 170.06400,340.20000 C 169.12800,338.54400 168.04800,336.38400 166.75200,333.79200 C 164.66400,334.72800 163.36800,335.23200 161.64000,335.95200 L 161.64000,339.33600 C 164.95200,346.24800 167.61600,353.95200 169.20000,356.32800 C 171.28800,355.46400 172.94400,354.96000 174.60000,354.45600 L 174.60000,354.45600 z M 161.64000,346.96800 C 163.22400,348.91200 163.36800,351.43200 162.64800,353.95200 C 162.43200,354.81600 162.07200,355.53600 161.64000,356.18400 L 161.64000,346.96800 z M 161.64000,356.18400 L 161.64000,346.96800 C 160.99200,346.10400 160.05600,345.38400 158.83200,344.88000 C 157.39200,344.44800 156.16800,344.37600 154.94400,344.52000 L 154.94400,350.06400 C 155.30400,350.13600 155.66400,350.35200 155.95200,350.64000 C 157.17600,351.50400 157.32000,352.65600 156.16800,353.73600 C 155.88000,354.09600 155.44800,354.31200 154.94400,354.38400 L 154.94400,360.00000 C 155.59200,359.78400 156.38400,359.56800 157.24800,359.28000 C 158.61600,358.92000 160.41600,357.98400 161.64000,356.18400 L 161.64000,356.18400 z M 161.64000,339.33600 L 161.64000,335.95200 L 160.20000,336.52800 C 160.70400,337.46400 161.20800,338.40000 161.64000,339.33600 z M 154.94400,360.00000 L 154.94400,354.38400 C 154.58400,354.45600 154.22400,354.52800 153.79200,354.45600 C 153.64800,353.37600 152.71200,351.21600 152.92800,350.35200 C 153.64800,350.06400 154.29600,349.92000 154.94400,350.06400 L 154.94400,344.52000 C 154.00800,344.66400 153.14400,344.88000 152.28000,345.16800 C 150.98400,342.43200 150.98400,340.05600 150.62400,337.68000 C 147.67200,338.54400 146.23200,338.97600 143.28000,339.84000 C 145.72800,347.90400 147.81600,357.91200 148.89600,361.72800 C 151.41600,361.00800 152.92800,360.57600 154.94400,360.00000 L 154.94400,360.00000 z M 119.23200,346.82400 L 119.23200,353.52000 C 119.88000,353.73600 120.45600,354.09600 120.88800,354.67200 C 122.11200,356.18400 121.89600,357.62400 120.24000,358.70400 C 119.88000,358.92000 119.59200,358.99200 119.23200,359.13600 L 119.23200,363.88800 C 119.44800,363.88800 119.73600,363.88800 119.95200,363.88800 C 124.48800,363.88800 127.08000,361.72800 127.72800,360.28800 C 129.52800,356.25600 128.52000,353.95200 127.29600,352.51200 C 126.28800,351.36000 125.42400,351.00000 124.41600,349.77600 C 126.43200,346.53600 129.02400,343.58400 129.45600,341.35200 C 126.93600,341.42400 125.64000,341.49600 123.12000,341.56800 C 121.60800,343.29600 120.60000,345.24000 119.23200,346.82400 z M 119.23200,363.88800 L 119.23200,359.13600 C 118.51200,359.28000 117.72000,359.20800 116.92800,358.92000 C 117.00000,357.48000 116.56800,354.52800 117.00000,353.37600 C 117.86400,353.30400 118.58400,353.30400 119.23200,353.52000 L 119.23200,346.82400 C 118.58400,347.54400 117.86400,348.19200 117.00000,348.76800 C 116.78400,346.82400 116.64000,344.44800 116.49600,341.56800 C 113.54400,341.56800 112.10400,341.56800 109.29600,341.56800 C 110.16000,349.92000 109.36800,360.14400 109.94400,363.24000 C 113.68800,363.24000 115.99200,363.81600 119.23200,363.88800 L 119.23200,363.88800 z M 78.264000,341.35200 L 78.264000,348.62400 C 78.552000,348.76800 78.840000,348.98400 79.056000,349.20000 C 79.848000,349.84800 80.136000,350.20800 80.712000,351.00000 C 81.576000,352.00800 81.576000,353.95200 80.640000,355.10400 C 79.848000,356.04000 79.200000,356.61600 78.264000,357.19200 L 78.264000,363.88800 C 80.712000,363.52800 82.296000,362.73600 83.448000,361.65600 C 84.456000,360.64800 85.032000,360.14400 85.968000,359.13600 C 90.720000,353.73600 88.344000,348.98400 86.472000,346.46400 C 85.680000,345.24000 85.176000,344.73600 84.024000,343.80000 C 82.008000,342.14400 80.496000,341.56800 78.264000,341.35200 L 78.264000,341.35200 z M 90.576000,363.67200 C 90.648000,354.67200 90.648000,350.20800 90.720000,341.20800 C 96.840000,341.28000 99.864000,341.28000 106.05600,341.28000 C 106.34400,343.22400 107.56800,345.45600 107.35200,346.82400 C 103.32000,346.46400 101.23200,346.68000 96.984000,346.75200 C 96.696000,347.83200 96.840000,348.76800 97.128000,349.70400 C 100.72800,349.70400 102.60000,349.70400 106.27200,349.70400 C 106.63200,351.57600 105.40800,353.37600 104.90400,355.39200 C 101.73600,355.46400 100.08000,355.46400 96.912000,355.46400 C 96.840000,356.47200 96.840000,356.90400 96.840000,357.84000 C 100.36800,358.12800 104.32800,357.84000 107.42400,357.33600 C 107.20800,360.14400 106.92000,361.58400 105.98400,364.10400 C 99.792000,363.96000 96.768000,363.81600 90.576000,363.67200 z M 78.264000,363.88800 L 78.264000,357.19200 C 78.192000,357.19200 78.120000,357.26400 78.048000,357.33600 C 77.328000,357.76800 76.608000,358.05600 75.528000,357.84000 C 75.168000,355.32000 75.384000,351.86400 75.240000,348.04800 C 75.888000,347.76000 77.184000,347.97600 78.264000,348.62400 L 78.264000,341.35200 C 77.760000,341.28000 77.184000,341.20800 76.536000,341.20800 C 73.152000,340.99200 71.496000,341.35200 68.184000,341.56800 C 68.256000,350.64000 68.328000,355.17600 68.400000,364.24800 C 71.424000,364.17600 72.864000,364.17600 75.888000,364.10400 C 76.752000,364.10400 77.544000,364.03200 78.264000,363.88800 z "/>
      <path style="fill:#ffcc00;fill-rule:evenodd" id="path31" d="M 520.12800,361.15200 L 530.42400,361.29600 L 530.35200,360.86400 L 529.99200,360.64800 L 521.13600,360.50400 C 520.77600,358.63200 521.06400,354.88800 521.13600,352.80000 L 529.48800,352.87200 L 529.84800,352.29600 L 529.34400,352.08000 L 521.35200,352.00800 C 521.06400,349.92000 521.20800,345.60000 521.35200,343.94400 L 530.13600,344.08800 L 530.78400,343.72800 L 530.56800,343.22400 L 520.34400,343.08000 L 520.12800,361.15200 L 520.12800,361.15200 z M 385.70400,311.54400 L 385.70400,312.55200 C 386.64000,312.04800 387.64800,311.47200 388.65600,310.82400 C 388.44000,310.53600 388.36800,310.46400 388.22400,310.10400 C 387.36000,310.82400 386.64000,311.18400 385.70400,311.54400 L 385.70400,311.54400 z M 385.70400,328.46400 L 385.70400,329.83200 C 387.57600,331.34400 389.95200,333.07200 392.11200,334.65600 C 392.18400,334.15200 392.18400,333.86400 392.18400,333.28800 C 390.60000,332.06400 389.80800,331.41600 388.22400,330.19200 C 390.60000,327.67200 394.27200,322.12800 397.94400,317.30400 C 397.65600,317.08800 397.51200,316.94400 397.22400,316.72800 C 393.33600,321.84000 390.96000,325.08000 387.28800,329.61600 C 386.64000,329.18400 386.20800,328.75200 385.70400,328.46400 L 385.70400,328.46400 z M 501.40800,361.15200 L 511.63200,361.29600 L 511.63200,360.86400 L 511.34400,360.64800 L 502.41600,360.50400 C 502.05600,358.63200 502.27200,354.88800 502.41600,352.80000 L 510.76800,352.87200 L 511.12800,352.29600 L 510.62400,352.08000 L 502.56000,352.00800 C 502.27200,349.92000 502.48800,345.60000 502.56000,343.94400 L 511.48800,344.08800 L 512.06400,343.72800 L 511.84800,343.22400 L 501.62400,343.08000 L 501.40800,361.15200 L 501.40800,361.15200 z M 481.82400,361.15200 C 481.03200,361.08000 480.81600,360.43200 481.82400,360.28800 C 483.62400,360.28800 484.56000,360.28800 486.36000,360.28800 C 486.64800,354.45600 486.50400,350.35200 486.50400,343.94400 C 486.93600,344.01600 487.08000,344.01600 487.44000,344.08800 C 487.36800,350.06400 487.87200,356.83200 487.44000,360.14400 C 489.52800,360.14400 490.53600,360.21600 492.55200,360.28800 C 492.84000,360.72000 492.98400,360.93600 493.27200,361.44000 C 489.02400,361.44000 484.34400,361.58400 481.82400,361.15200 L 481.82400,361.15200 z M 468.57600,361.00800 L 469.44000,360.57600 L 467.78400,358.20000 C 466.99200,357.12000 467.13600,355.39200 467.78400,354.31200 L 470.37600,349.70400 C 471.09600,348.40800 471.52800,346.24800 470.52000,345.16800 L 469.00800,343.44000 L 468.43200,343.87200 L 469.58400,345.38400 C 470.52000,346.60800 470.08800,348.76800 469.29600,350.06400 L 467.20800,353.52000 C 466.27200,354.88800 465.98400,357.19200 466.92000,358.56000 L 468.57600,361.00800 L 468.57600,361.00800 z M 456.12000,342.28800 L 456.98400,342.07200 L 454.89600,357.84000 L 454.53600,358.63200 L 453.88800,358.63200 L 456.12000,342.28800 L 456.12000,342.28800 z M 431.28000,353.16000 L 441.07200,356.40000 L 441.14400,355.96800 L 440.85600,355.60800 L 432.43200,352.87200 C 432.72000,350.92800 434.08800,347.40000 434.80800,345.52800 L 442.87200,348.12000 L 443.23200,347.76000 L 442.87200,347.32800 L 435.24000,344.88000 C 435.60000,342.72000 437.11200,338.68800 437.68800,337.10400 L 446.11200,339.98400 L 446.83200,339.76800 L 446.76000,339.26400 L 437.04000,336.02400 L 431.28000,353.16000 L 431.28000,353.16000 z M 423.07200,338.47200 L 426.16800,339.76800 L 426.31200,338.97600 L 423.07200,337.89600 L 423.07200,338.47200 L 423.07200,338.47200 z M 399.52800,338.90400 L 408.45600,343.94400 L 408.67200,343.58400 L 408.45600,343.22400 L 400.75200,338.83200 C 401.25600,337.03200 403.34400,333.79200 404.42400,332.06400 L 411.76800,336.09600 L 412.27200,335.80800 L 411.98400,335.44800 L 404.92800,331.56000 C 405.72000,329.47200 407.95200,325.80000 408.81600,324.43200 L 416.59200,328.82400 L 417.24000,328.75200 L 417.31200,328.24800 L 408.45600,323.20800 L 399.52800,338.90400 z M 385.70400,329.83200 L 385.70400,328.46400 C 385.12800,327.96000 384.55200,327.52800 383.76000,326.95200 L 383.76000,328.17600 C 384.33600,328.68000 384.98400,329.25600 385.70400,329.83200 L 385.70400,329.83200 z M 385.70400,312.55200 L 385.70400,311.54400 C 385.56000,311.54400 385.48800,311.61600 385.34400,311.68800 C 384.76800,311.25600 384.26400,310.82400 383.76000,310.46400 L 383.76000,311.40000 C 384.12000,311.61600 384.40800,311.90400 384.76800,312.04800 C 384.40800,312.26400 384.12000,312.48000 383.76000,312.69600 L 383.76000,313.63200 L 385.70400,312.55200 z M 383.76000,328.17600 L 383.76000,326.95200 L 383.54400,326.80800 C 382.75200,326.37600 382.46400,327.02400 383.11200,327.52800 C 383.25600,327.74400 383.47200,327.96000 383.76000,328.17600 L 383.76000,328.17600 z M 383.76000,313.63200 L 383.76000,312.69600 C 380.23200,314.92800 375.48000,317.59200 373.03200,319.03200 L 371.95200,318.09600 C 373.03200,314.85600 374.04000,309.16800 375.55200,305.13600 C 376.92000,305.71200 380.66400,309.09600 383.76000,311.40000 L 383.76000,310.46400 C 380.88000,308.23200 379.00800,306.72000 375.69600,304.20000 C 375.98400,302.97600 376.12800,302.04000 376.56000,301.32000 L 375.98400,300.74400 C 373.39200,307.36800 372.96000,311.54400 371.01600,318.24000 C 371.73600,318.88800 372.09600,319.24800 372.74400,319.89600 C 377.28000,317.30400 380.16000,315.72000 383.76000,313.63200 L 383.76000,313.63200 z M 297.28800,279.36000 L 297.28800,280.08000 C 298.72800,280.51200 300.16800,281.37600 301.53600,282.88800 C 302.40000,283.82400 304.77600,287.64000 302.25600,291.38400 C 301.60800,292.32000 300.24000,293.54400 299.01600,294.26400 C 298.58400,294.55200 297.93600,294.91200 297.28800,295.20000 L 297.28800,295.99200 C 298.08000,295.70400 298.87200,295.27200 299.37600,294.91200 C 300.67200,294.12000 302.18400,292.82400 302.90400,291.81600 C 306.00000,287.71200 303.26400,283.32000 302.25600,282.31200 C 300.88800,280.80000 298.94400,279.86400 297.28800,279.36000 L 297.28800,279.36000 z M 347.90400,286.77600 C 348.26400,286.77600 348.40800,286.77600 348.69600,286.84800 C 347.76000,292.89600 347.25600,295.84800 346.24800,301.96800 C 350.92800,297.93600 353.01600,295.56000 357.40800,291.45600 C 357.19200,297.14400 357.19200,300.38400 356.54400,306.14400 C 360.79200,301.60800 362.95200,299.08800 367.12800,294.76800 C 367.27200,294.98400 367.41600,295.12800 367.56000,295.34400 C 362.88000,300.38400 360.36000,302.97600 355.60800,307.87200 C 356.47200,301.39200 356.18400,299.16000 356.68800,293.25600 C 352.22400,297.36000 349.99200,299.37600 345.74400,303.40800 C 345.67200,303.12000 345.60000,302.97600 345.45600,302.68800 C 346.46400,296.35200 346.96800,293.11200 347.90400,286.77600 L 347.90400,286.77600 z M 311.83200,296.49600 L 322.05600,298.00800 L 322.05600,297.50400 L 321.76800,297.28800 L 312.98400,295.92000 C 312.84000,294.04800 313.63200,290.30400 313.99200,288.36000 L 322.34400,289.51200 L 322.70400,289.00800 L 322.27200,288.72000 L 314.28000,287.56800 C 314.28000,285.48000 315.07200,281.23200 315.36000,279.57600 L 324.14400,280.87200 L 324.79200,280.58400 L 324.64800,280.15200 L 314.56800,278.64000 L 311.83200,296.49600 z M 297.28800,295.99200 L 297.28800,295.20000 C 296.85600,295.34400 296.42400,295.41600 295.92000,295.48800 C 294.62400,295.56000 293.68800,295.56000 292.68000,295.56000 C 292.32000,295.56000 291.96000,295.56000 291.52800,295.56000 C 291.38400,289.36800 291.31200,286.05600 291.16800,279.93600 C 291.45600,279.86400 291.74400,279.86400 291.96000,279.86400 C 292.82400,279.72000 293.54400,279.57600 294.55200,279.57600 C 295.48800,279.64800 296.42400,279.79200 297.28800,280.08000 L 297.28800,279.36000 C 296.06400,279.00000 294.98400,278.85600 294.48000,278.92800 C 292.89600,279.00000 292.03200,279.07200 290.44800,279.21600 C 290.59200,286.05600 290.66400,289.44000 290.80800,296.28000 C 292.89600,296.28000 293.90400,296.35200 295.99200,296.20800 C 296.42400,296.20800 296.85600,296.06400 297.28800,295.99200 L 297.28800,295.99200 z M 228.88800,297.72000 L 228.88800,299.01600 L 236.73600,313.99200 L 245.88000,309.16800 L 245.59200,308.80800 L 245.23200,308.80800 L 237.31200,312.91200 C 236.16000,311.40000 234.50400,308.01600 233.64000,306.14400 L 241.05600,302.18400 L 241.05600,301.60800 L 240.55200,301.68000 L 233.49600,305.35200 C 232.20000,303.62400 230.25600,299.73600 229.60800,298.22400 L 237.45600,294.19200 L 237.81600,293.54400 L 237.38400,293.25600 L 228.88800,297.72000 L 228.88800,297.72000 z M 228.88800,317.80800 L 228.88800,318.31200 C 229.75200,318.24000 229.46400,317.73600 228.96000,317.80800 L 228.88800,317.80800 L 228.88800,317.80800 z M 264.38400,283.53600 C 264.09600,283.68000 263.95200,283.68000 263.66400,283.82400 C 265.17600,290.30400 265.75200,293.76000 267.26400,300.38400 C 269.20800,299.08800 275.90400,285.12000 278.06400,282.52800 C 279.21600,288.28800 280.08000,291.09600 281.44800,296.78400 C 281.80800,296.85600 281.95200,296.85600 282.38400,296.85600 C 280.72800,290.01600 279.93600,286.77600 278.20800,279.79200 C 276.12000,283.82400 272.52000,290.95200 267.91200,298.22400 C 266.32800,292.89600 265.96800,289.15200 264.38400,283.53600 L 264.38400,283.53600 z M 253.29600,304.84800 L 253.94400,305.13600 L 254.44800,304.70400 C 252.79200,300.45600 250.70400,295.48800 248.32800,290.08800 C 250.34400,289.22400 252.64800,288.21600 254.52000,287.42400 L 254.01600,286.70400 C 252.14400,287.64000 249.26400,288.86400 246.81600,290.01600 C 249.04800,294.40800 251.42400,299.80800 253.29600,304.84800 z M 228.88800,318.31200 L 228.88800,317.80800 C 224.28000,316.72800 221.76000,316.94400 217.51200,316.94400 C 218.30400,312.76800 218.59200,310.39200 219.38400,306.00000 C 219.24000,305.85600 219.24000,305.71200 219.09600,305.56800 C 218.95200,305.71200 218.80800,305.78400 218.59200,305.92800 C 218.08800,310.39200 217.29600,312.91200 216.36000,317.16000 C 214.99200,317.23200 214.34400,317.37600 213.04800,317.52000 C 211.89600,315.86400 210.74400,314.92800 209.73600,313.34400 C 209.52000,313.27200 209.44800,313.20000 209.16000,313.05600 C 209.08800,313.20000 209.01600,313.27200 208.94400,313.41600 L 208.94400,313.70400 C 212.90400,319.24800 215.20800,322.12800 219.45600,327.09600 C 219.74400,326.88000 219.81600,326.73600 219.88800,326.44800 C 217.65600,323.64000 216.43200,322.12800 214.20000,319.32000 C 213.91200,318.88800 214.05600,318.24000 214.70400,318.09600 C 220.75200,317.37600 224.42400,318.02400 228.38400,318.31200 C 228.60000,318.31200 228.74400,318.31200 228.88800,318.31200 L 228.88800,318.31200 z M 228.88800,299.01600 L 228.88800,297.72000 L 228.31200,298.00800 L 228.88800,299.01600 L 228.88800,299.01600 z M 208.94400,333.64800 L 208.94400,333.79200 C 209.01600,333.72000 209.01600,333.72000 209.08800,333.72000 L 208.94400,333.64800 z M 208.94400,333.79200 L 208.94400,333.64800 C 208.80000,333.50400 208.65600,333.43200 208.51200,333.28800 C 205.99200,333.14400 203.47200,333.14400 201.74400,332.42400 C 199.72800,331.41600 198.07200,329.25600 198.79200,325.65600 C 199.29600,323.49600 199.58400,322.12800 201.16800,320.18400 C 201.09600,320.18400 201.09600,320.11200 201.02400,319.96800 C 200.73600,319.96800 200.66400,319.96800 200.44800,320.25600 C 199.29600,321.76800 198.57600,322.63200 197.92800,325.51200 C 197.49600,327.52800 197.49600,331.56000 201.45600,333.28800 C 202.82400,333.93600 205.48800,334.29600 208.22400,334.15200 C 208.58400,334.08000 208.65600,333.93600 208.94400,333.79200 L 208.94400,333.79200 z M 208.94400,313.70400 L 208.94400,313.41600 C 208.94400,313.41600 208.87200,313.48800 208.87200,313.56000 L 208.94400,313.70400 L 208.94400,313.70400 z M 174.09600,337.03200 L 174.09600,340.48800 C 175.10400,336.96000 175.10400,335.52000 175.75200,332.49600 C 175.24800,331.99200 175.82400,332.13600 175.10400,332.49600 C 174.74400,334.15200 174.38400,335.59200 174.09600,337.03200 L 174.09600,337.03200 z M 174.09600,340.77600 C 181.29600,340.12800 182.44800,347.90400 179.13600,350.06400 C 177.12000,351.43200 175.75200,351.93600 174.09600,352.44000 L 174.09600,351.79200 C 175.68000,351.28800 176.90400,350.64000 178.34400,349.41600 C 182.80800,346.10400 178.63200,340.84800 174.09600,341.49600 L 174.09600,340.77600 L 174.09600,340.77600 z M 185.68800,328.68000 L 186.19200,328.03200 L 193.75200,341.92800 L 193.89600,342.86400 L 193.39200,343.22400 L 185.68800,328.68000 z M 174.09600,352.44000 L 174.09600,351.79200 C 173.37600,352.00800 172.58400,352.22400 171.72000,352.44000 C 170.20800,349.05600 169.34400,347.25600 167.97600,343.80000 C 169.84800,343.00800 171.00000,342.14400 173.59200,341.56800 C 173.73600,341.49600 173.95200,341.49600 174.09600,341.49600 L 174.09600,340.77600 L 174.02400,340.77600 L 174.09600,340.48800 L 174.09600,337.03200 C 173.80800,338.40000 173.52000,339.69600 173.23200,340.99200 C 170.56800,341.71200 169.92000,342.14400 167.68800,343.15200 C 166.75200,340.99200 166.24800,339.91200 165.31200,337.68000 C 165.16800,337.53600 165.02400,337.60800 164.73600,337.46400 C 164.59200,337.68000 164.44800,337.82400 164.59200,338.11200 C 167.32800,344.23200 168.62400,347.11200 171.28800,353.30400 C 172.36800,352.94400 173.23200,352.65600 174.09600,352.44000 L 174.09600,352.44000 z M 154.65600,346.75200 L 154.65600,347.54400 C 154.94400,347.54400 155.16000,347.54400 155.44800,347.54400 C 158.04000,347.68800 161.13600,350.71200 158.54400,354.52800 C 158.04000,355.39200 156.67200,356.25600 154.65600,356.83200 L 154.65600,357.55200 C 154.87200,357.48000 155.01600,357.48000 155.23200,357.40800 C 156.96000,356.83200 159.19200,355.68000 159.62400,354.38400 C 161.78400,349.70400 158.68800,347.11200 156.16800,346.82400 C 155.73600,346.75200 155.23200,346.75200 154.65600,346.75200 z M 154.65600,357.55200 L 154.65600,356.83200 C 153.79200,357.04800 152.78400,357.26400 151.70400,357.33600 C 150.91200,353.80800 150.55200,352.00800 149.76000,348.55200 C 151.34400,347.97600 152.64000,347.54400 154.65600,347.54400 L 154.65600,346.75200 C 153.14400,346.82400 151.27200,347.18400 149.47200,347.76000 C 148.82400,345.16800 148.53600,344.08800 147.96000,341.78400 C 147.81600,341.49600 147.67200,341.35200 147.52800,341.13600 C 147.38400,341.28000 147.24000,341.42400 147.09600,341.64000 C 148.68000,348.26400 149.47200,351.57600 150.98400,358.27200 C 152.35200,358.05600 153.36000,357.91200 154.65600,357.55200 L 154.65600,357.55200 z M 119.01600,350.42400 L 119.01600,351.21600 C 119.23200,351.21600 119.52000,351.28800 119.80800,351.36000 C 124.48800,352.22400 126.64800,359.13600 121.03200,360.50400 C 120.31200,360.72000 119.66400,360.79200 119.01600,360.86400 L 119.01600,361.65600 C 119.73600,361.58400 120.52800,361.51200 121.53600,361.36800 C 125.42400,360.72000 127.44000,353.01600 120.45600,350.78400 C 122.11200,347.68800 123.26400,346.32000 125.20800,343.87200 C 125.06400,343.72800 124.92000,343.58400 124.77600,343.51200 C 122.54400,346.03200 121.39200,347.68800 119.59200,350.49600 C 119.37600,350.49600 119.16000,350.49600 119.01600,350.42400 z M 119.01600,361.65600 L 119.01600,360.86400 C 117.36000,361.08000 115.84800,360.93600 113.76000,360.57600 C 113.76000,356.83200 113.61600,354.88800 113.76000,351.14400 C 115.56000,351.21600 116.92800,350.92800 119.01600,351.21600 L 119.01600,350.42400 C 116.78400,350.28000 115.99200,350.35200 113.76000,350.35200 C 113.76000,348.04800 113.76000,346.89600 113.76000,344.52000 C 113.76000,344.30400 113.47200,344.23200 113.32800,344.08800 C 113.11200,344.23200 112.89600,344.23200 112.89600,344.52000 C 112.96800,351.28800 112.96800,354.52800 113.04000,361.15200 C 115.48800,361.36800 117.00000,361.72800 119.01600,361.65600 L 119.01600,361.65600 z M 78.336000,344.44800 L 78.336000,345.16800 C 79.848000,345.67200 81.288000,346.53600 82.656000,348.04800 C 83.520000,348.98400 85.824000,352.94400 83.232000,356.61600 C 82.584000,357.48000 81.144000,358.70400 79.992000,359.49600 C 79.560000,359.71200 78.984000,360.00000 78.336000,360.21600 L 78.336000,361.00800 C 79.128000,360.72000 79.848000,360.36000 80.280000,360.14400 C 81.576000,359.28000 83.088000,358.05600 83.880000,357.04800 C 87.048000,352.94400 84.456000,348.55200 83.448000,347.54400 C 82.080000,345.96000 80.064000,344.95200 78.336000,344.44800 L 78.336000,344.44800 z M 93.456000,361.15200 L 103.75200,361.29600 L 103.68000,360.86400 L 103.39200,360.64800 L 94.464000,360.50400 C 94.104000,358.63200 94.320000,354.88800 94.464000,352.80000 L 102.88800,352.87200 L 103.17600,352.29600 L 102.74400,352.08000 L 94.680000,352.00800 C 94.320000,349.92000 94.608000,345.60000 94.680000,343.94400 L 103.53600,344.08800 L 104.11200,343.72800 L 103.89600,343.22400 L 93.672000,343.08000 L 93.456000,361.15200 z M 78.336000,361.00800 L 78.336000,360.21600 C 77.832000,360.43200 77.328000,360.57600 76.752000,360.57600 C 75.456000,360.64800 74.520000,360.64800 73.512000,360.57600 C 73.152000,360.57600 72.792000,360.57600 72.360000,360.57600 C 72.288000,354.45600 72.288000,351.00000 72.288000,344.88000 C 72.576000,344.88000 72.864000,344.88000 73.152000,344.88000 C 73.872000,344.80800 74.592000,344.59200 75.672000,344.66400 C 76.608000,344.73600 77.472000,344.88000 78.336000,345.16800 L 78.336000,344.44800 C 77.184000,344.08800 76.104000,343.94400 75.600000,343.94400 C 74.016000,344.01600 73.152000,344.08800 71.568000,344.23200 C 71.568000,351.00000 71.568000,354.45600 71.640000,361.29600 C 73.656000,361.29600 74.736000,361.44000 76.752000,361.29600 C 77.328000,361.29600 77.832000,361.15200 78.336000,361.00800 z "/>
    </g>
    <path style="fill:#0032fc;fill-rule:evenodd" id="path43" d="M 560.80800,147.67200 L 561.02400,147.67200 C 561.60000,147.67200 562.10400,147.67200 562.39200,147.74400 C 562.68000,147.81600 562.89600,147.88800 563.11200,148.03200 C 563.54400,148.24800 563.83200,148.53600 563.97600,148.89600 C 564.26400,149.32800 564.33600,149.83200 564.33600,150.33600 C 564.33600,150.84000 564.26400,151.20000 563.97600,151.56000 C 563.83200,151.99200 563.47200,152.20800 563.04000,152.42400 C 563.40000,152.56800 563.68800,152.71200 563.83200,153.00000 C 563.97600,153.14400 564.04800,153.64800 564.12000,154.22400 L 564.26400,155.73600 C 564.26400,156.02400 564.33600,156.31200 564.33600,156.52800 C 564.40800,156.60000 564.48000,156.74400 564.62400,156.81600 L 564.62400,157.03200 L 563.18400,157.03200 C 563.04000,156.88800 562.96800,156.52800 562.89600,155.88000 L 562.89600,155.80800 L 562.82400,154.58400 C 562.75200,153.93600 562.68000,153.57600 562.46400,153.36000 C 562.24800,153.21600 561.67200,153.07200 560.80800,153.07200 L 560.80800,151.99200 L 560.88000,151.99200 C 561.60000,151.99200 562.17600,151.84800 562.53600,151.56000 C 562.82400,151.34400 563.04000,150.98400 563.04000,150.33600 C 563.04000,149.76000 562.82400,149.32800 562.53600,149.18400 C 562.24800,148.89600 561.67200,148.75200 560.88000,148.75200 L 560.80800,148.75200 L 560.80800,147.67200 L 560.80800,147.67200 z M 560.80800,159.91200 C 564.76800,159.91200 568.00800,156.67200 568.00800,152.64000 C 568.00800,148.68000 564.76800,145.44000 560.80800,145.44000 L 560.80800,146.30400 C 564.33600,146.37600 567.14400,149.18400 567.14400,152.64000 C 567.14400,156.24000 564.33600,159.04800 560.80800,159.12000 L 560.80800,159.91200 z M 557.42400,147.67200 L 560.80800,147.67200 L 560.80800,148.75200 L 558.64800,148.75200 L 558.64800,151.99200 L 560.80800,151.99200 L 560.80800,153.07200 L 560.73600,153.07200 L 558.72000,153.07200 L 558.72000,157.03200 L 557.42400,157.03200 L 557.42400,147.67200 L 557.42400,147.67200 z M 560.80800,145.44000 L 560.73600,145.44000 C 556.70400,145.44000 553.46400,148.68000 553.46400,152.64000 C 553.46400,156.67200 556.70400,159.91200 560.73600,159.91200 L 560.80800,159.91200 L 560.80800,159.12000 L 560.73600,159.12000 C 557.20800,159.12000 554.32800,156.24000 554.32800,152.64000 C 554.32800,149.18400 557.20800,146.30400 560.73600,146.30400 L 560.80800,146.30400 L 560.80800,145.44000 z "/>
  </g>
</svg>